<svg width="380" height="429" viewBox="0 0 380 429" fill="none" xmlns="http://www.w3.org/2000/svg">
<path fill-rule="evenodd" clip-rule="evenodd" d="M190.135 80.443C279.606 97.4108 342 155.062 342 247.11C342 357.439 264.487 242.804 211.039 307.129C157.591 371.455 43.718 373.278 38.2709 247.11C33.1717 129.001 100.665 63.4753 190.135 80.443Z" fill="white"/>
<path fill-rule="evenodd" clip-rule="evenodd" d="M144.4 258.804L168.068 224.24L168.611 224.726C172.106 227.828 174.878 229.873 176.927 230.86L177.533 231.15C187.373 235.823 194.139 237.41 193.052 238.508L191.706 239.874C183.008 248.737 171.1 261.627 155.981 278.541C153.91 281.06 151.12 282.676 148.106 283.108L144.988 283.528C114.383 287.618 94.749 287.971 87.5541 286.172C86.0515 285.796 81.4264 286.777 77.9345 290.737C72.6966 296.677 65.2062 310.985 63.9483 310.985C62.1196 310.985 63.8428 301.508 69.1179 282.554L69.6754 280.352C72.133 270.733 73.9009 265.046 74.9793 263.29C76.1375 261.404 80.0499 264.733 86.7164 273.277L86.5356 274.388C87.4008 273.254 88.4265 272.049 89.6127 270.771L92.7624 270.345C103.89 268.82 112.348 267.426 118.137 266.161L118.747 266.026C125.018 264.623 133.57 262.216 144.4 258.804Z" fill="white"/>
<path fill-rule="evenodd" clip-rule="evenodd" d="M291.784 222.997L300.584 230.483C302.272 231.917 303.511 233.929 304.114 236.217L305.781 242.52C306.566 244.427 305.88 246.692 304.226 247.657L301.118 250.26C299.119 251.425 296.682 250.163 296.157 247.692L294.408 240.667C294.408 240.667 286.993 238.124 286.006 228.16L291.784 222.997Z" fill="white"/>
<path fill-rule="evenodd" clip-rule="evenodd" d="M249.369 100.039C255.382 100.315 258.404 109.618 260.37 114.216C261.039 115.783 256.33 162.081 254.79 173.928C252.05 195.026 243.767 201.716 238.567 203.152C238.567 203.152 238.879 227.14 236.701 233.11C231.878 246.329 170.833 237.456 164.867 215.362C160.789 200.257 175.945 198.497 181.633 189.39C192.059 172.7 192.599 157.167 203.83 146.055C208.085 140.789 213.027 135.504 217.288 129.149L219.022 126.574C229.861 110.542 238.115 99.9046 248.804 100.023L249.369 100.039Z" fill="white"/>
<path fill-rule="evenodd" clip-rule="evenodd" d="M219.218 140.17C218.222 140.712 216.765 140.88 216.246 139.779C214.615 136.321 209.626 135.845 207.506 138.946C209.541 138.156 211.913 137.402 213.732 138.7C214.239 139.061 214.676 139.567 215.109 140.067C215.83 140.901 216.539 141.721 217.532 141.831C218.27 141.912 218.973 141.562 219.672 141.212C220.423 140.838 221.17 140.465 221.952 140.631C222.821 140.815 223.43 141.596 224.04 142.376C224.647 143.154 225.255 143.933 226.12 144.121C226.828 144.276 227.54 143.989 228.245 143.705C229.033 143.387 229.814 143.072 230.572 143.381C231.477 143.749 231.891 144.803 232.306 145.857C232.718 146.906 233.13 147.956 234.027 148.333C234.558 148.557 235.132 148.476 235.699 148.351L236.261 148.222C237.586 147.924 239.016 147.898 240.228 148.571C241.269 149.149 242.089 150.346 242.156 151.624C242.183 151.348 242.207 151.073 242.228 150.799L242.438 149.243C241.237 147.651 239.349 146.75 237.5 146.889C237.183 146.913 236.866 146.965 236.549 147.017C235.94 147.118 235.332 147.218 234.728 147.114C233.809 146.956 232.876 146.074 233.031 145.04L233.045 144.929C233.213 143.197 231.158 142.204 229.579 142.35C229.243 142.381 228.9 142.432 228.554 142.482C227.237 142.675 225.89 142.873 224.856 142.018C224.457 141.688 224.148 141.226 223.842 140.768C223.414 140.127 222.992 139.495 222.335 139.246C221.61 138.971 220.872 139.26 220.156 139.643L219.919 139.774L219.218 140.17ZM207.765 152.209C208.45 153.247 209.862 152.666 210.951 152.217L211.008 152.193C213.928 150.99 217.448 151.929 219.583 154.481C220.753 155.879 222.485 155.488 224.278 155.084C225.776 154.745 227.316 154.398 228.608 155.076C229.212 155.393 229.772 155.93 230.321 156.455C231.328 157.418 232.296 158.345 233.424 157.821C235.564 156.825 238.189 157.356 239.907 159.098L239.902 159.647L239.894 160.857C238.187 158.926 235.422 158.301 233.187 159.34C232.059 159.865 231.09 158.938 230.084 157.975C229.535 157.449 228.974 156.913 228.37 156.595C227.079 155.917 225.538 156.265 224.04 156.603C222.248 157.008 220.516 157.399 219.345 156C217.253 153.499 213.831 152.548 210.946 153.643L210.37 153.876C209.343 154.287 208.143 154.661 207.528 153.728C205.587 150.787 201.689 149.756 198.793 151.418L199.167 149.822L199.339 149.733C202.198 148.311 205.892 149.371 207.765 152.209ZM201.115 165.324C200.041 165.82 198.651 166.463 197.931 165.455C196.619 163.618 193.621 163.484 188.938 165.053C189.296 165.327 190.22 165.3 191.359 165.267C193.504 165.204 196.413 165.118 197.745 166.983C198.392 167.888 199.578 167.463 200.591 167.008L201.158 166.75C204.004 165.531 207.456 166.333 209.631 168.741C210.849 170.088 212.566 169.623 214.344 169.14C215.829 168.738 217.356 168.323 218.67 168.945C219.284 169.236 219.863 169.748 220.429 170.249C221.468 171.168 222.467 172.052 223.576 171.479L223.731 171.402C224.988 170.803 227.403 171.813 229.592 172.728C231.185 173.394 232.658 174.009 233.478 173.919C228.403 170.549 225.165 169.226 223.762 169.95L223.65 170.003C222.585 170.464 221.618 169.608 220.615 168.72C220.048 168.219 219.47 167.707 218.856 167.416C217.542 166.795 216.014 167.209 214.529 167.612C212.751 168.094 211.034 168.56 209.817 167.213C207.597 164.755 204.048 163.97 201.17 165.299L201.115 165.324ZM211.062 220.974C212.35 221.906 214.017 223.115 215.208 222.451C217.311 221.281 221.102 222.32 226.58 225.569L227.106 225.885C226.57 225.997 225.364 225.578 223.878 225.063C221.078 224.091 217.282 222.773 215.078 224C214.009 224.595 212.556 223.682 211.339 222.814L210.657 222.326C207.442 220.098 203.1 219.346 199.734 220.397C198.655 220.904 197.153 220.311 195.502 219.658C194.379 219.215 193.187 218.744 192.013 218.574C190.566 218.364 189.82 218.49 189.166 218.6C188.509 218.711 187.944 218.807 186.854 218.531C186.011 218.319 184.665 217.654 182.814 216.537C179.534 214.758 173.721 214.974 170.661 216.21L170.496 216.274C167.225 217.495 167.252 216.157 170.541 214.765L170.791 214.662L170.987 214.585C174.483 213.271 180.957 213.415 184.344 215.868L184.411 215.917C185.699 216.849 187.366 218.057 188.557 217.394L188.645 217.35C189.478 216.963 191.427 216.97 192.031 217.015L192.143 217.025C194.177 217.28 194.619 217.488 195.102 217.886L195.449 218.182L195.647 218.268C196.382 218.591 197.161 218.973 197.986 219.415C198.327 219.381 198.719 219.279 199.182 219.092L199.379 219.016C202.874 217.702 207.608 218.472 210.996 220.925L211.062 220.974ZM195.918 176.895C196.68 177.903 198.151 177.26 199.286 176.764L199.346 176.739C202.39 175.41 206.144 176.195 208.493 178.653C209.781 180 211.597 179.534 213.478 179.052C215.049 178.649 216.665 178.235 218.055 178.856C218.705 179.147 219.317 179.659 219.916 180.16C220.978 181.048 222.001 181.904 223.128 181.443L223.246 181.39C224.73 180.666 228.156 181.989 233.525 185.359C232.657 185.449 231.099 184.834 229.414 184.168C227.098 183.253 224.543 182.243 223.213 182.842L223.049 182.919C221.876 183.492 220.818 182.608 219.72 181.689C219.12 181.188 218.509 180.676 217.859 180.385C216.469 179.763 214.853 180.178 213.282 180.58C211.401 181.063 209.584 181.528 208.297 180.181C205.995 177.773 202.343 176.971 199.333 178.19L198.732 178.448C197.661 178.903 196.406 179.328 195.722 178.423C194.313 176.559 191.235 176.644 188.966 176.707C187.761 176.74 186.784 176.767 186.405 176.493C191.359 174.924 194.53 175.058 195.918 176.895ZM195.145 189.348C193.839 189.844 192.147 190.487 191.27 189.479C189.673 187.642 186.025 187.508 180.324 189.077C180.76 189.351 181.884 189.324 183.27 189.291C185.882 189.228 189.423 189.142 191.044 191.007C191.831 191.912 193.275 191.487 194.508 191.032L195.198 190.774C198.662 189.555 202.864 190.357 205.512 192.765C206.993 194.112 209.083 193.647 211.247 193.164C213.055 192.762 214.915 192.347 216.513 192.969C217.261 193.26 217.965 193.772 218.655 194.273C219.919 195.192 221.135 196.076 222.485 195.503L222.673 195.426C224.204 194.827 227.143 195.837 229.808 196.752L229.808 196.752C231.746 197.418 233.539 198.033 234.538 197.943C228.361 194.573 224.418 193.25 222.711 193.974L222.576 194.027C221.279 194.488 220.102 193.632 218.88 192.744C218.191 192.243 217.487 191.731 216.739 191.44C215.14 190.819 213.281 191.233 211.473 191.636C209.309 192.118 207.219 192.584 205.738 191.237C203.036 188.779 198.716 187.994 195.213 189.323L195.145 189.348ZM185 199.203C185.983 200.211 187.881 199.568 189.346 199.072L189.422 199.047C193.35 197.718 198.195 198.503 201.225 200.961C202.887 202.308 205.231 201.842 207.657 201.36C209.685 200.957 211.77 200.543 213.563 201.165C214.402 201.455 215.191 201.967 215.965 202.468C217.335 203.356 218.655 204.212 220.109 203.751L220.261 203.698C222.176 202.974 226.597 204.297 233.524 207.667C232.404 207.757 230.394 207.142 228.22 206.476C225.232 205.561 221.935 204.552 220.218 205.151L220.008 205.227C218.493 205.8 217.129 204.916 215.712 203.997C214.938 203.496 214.149 202.984 213.31 202.693C211.517 202.071 209.432 202.486 207.404 202.889C204.977 203.371 202.633 203.836 200.972 202.489C198.002 200.081 193.29 199.279 189.406 200.498L188.631 200.756C187.249 201.211 185.629 201.636 184.747 200.731C182.928 198.867 178.957 198.952 176.028 199.015C174.474 199.048 173.213 199.075 172.724 198.801C179.117 197.232 183.209 197.366 185 199.203ZM184.786 207.652C183.32 208.148 181.423 208.791 180.44 207.783C178.649 205.946 174.557 205.812 168.164 207.381C168.653 207.655 169.913 207.628 171.468 207.595C174.397 207.532 178.368 207.447 180.186 209.311C181.069 210.216 182.689 209.791 184.071 209.336L184.845 209.078C188.479 207.937 192.837 208.566 195.816 210.623C196.729 211.446 198.318 211.343 200.065 211.23C201.253 211.153 202.513 211.071 203.683 211.273C205.126 211.522 205.812 211.875 206.414 212.185C207.018 212.496 207.537 212.763 208.652 212.838C209.945 212.924 213.023 212.177 213.023 212.177C216.61 211.489 222.146 213.505 224.785 215.645L224.928 215.758C227.844 218.004 228.088 216.589 225.038 214.117L224.868 213.982C221.829 211.631 215.571 209.754 211.715 211.059L211.639 211.084C210.174 211.58 208.276 212.223 207.293 211.215C206.608 210.512 204.368 209.828 203.936 209.744C201.655 209.305 201.345 209.443 200.652 209.75L200.621 209.764C200.575 209.784 200.527 209.806 200.476 209.828L200.265 209.849C199.479 209.931 198.637 210.055 197.736 210.223C197.417 210.084 197.065 209.865 196.665 209.541L196.495 209.406C193.455 207.055 188.717 206.322 184.862 207.627L184.786 207.652Z" fill="#FFB61D"/>
<path fill-rule="evenodd" clip-rule="evenodd" d="M247.429 107.003C255.977 107.037 262.723 115.224 262.147 124.862C262.147 124.862 252.179 173.819 257.231 191.22C259.186 197.952 287.406 218.901 286.213 221.053L282.231 231.825C280.816 234.374 237.502 201.665 237.502 201.665C233.346 197.941 232.574 123.899 232.574 123.899C232.492 114.574 239.176 106.971 247.429 107.003Z" fill="white"/>
<path d="M292.295 222.996L287.205 234.829L287.104 235.146C286.68 236.372 285.061 237.122 284.853 237.182L284.822 237.182L281.817 235.174C281.472 234.848 281.284 233.015 281.648 231.311L281.733 230.953C281.733 230.953 284.116 221.503 286.09 219.116C287.241 217.724 293.89 219.116 292.295 222.996Z" fill="white"/>
<path fill-rule="evenodd" clip-rule="evenodd" d="M219.781 332.121H207.629C207.629 332.121 221.89 290.319 221.89 279.35C221.89 275.947 210.68 281.073 212.306 275.947C214.542 268.899 222.28 256.294 220.374 249.966C218.381 243.349 210.947 240.951 204.472 238.27C203.231 237.756 225.863 239.53 232.071 233.955C240.259 226.602 233.611 210.362 235.81 216.088C238.463 222.997 255.704 240.328 252.286 259.096C248.957 277.38 219.781 332.121 219.781 332.121Z" fill="white"/>
<path fill-rule="evenodd" clip-rule="evenodd" d="M215.568 340.181L214.354 339.726C214.276 339.697 214.266 339.591 214.337 339.548L215.501 338.834V337.217C215.501 337.128 215.608 337.083 215.671 337.146L216.606 338.073L218.164 337.147C218.249 337.097 218.348 337.188 218.305 337.277L217.41 339.121L219.133 341.154C219.198 341.231 219.121 341.345 219.026 341.314L216.671 340.547L215.757 342.365C215.71 342.459 215.568 342.426 215.568 342.32V341.461V340.181Z" fill="#FFB61D"/>
<path fill-rule="evenodd" clip-rule="evenodd" d="M184.762 247.926C184.233 248.545 183.711 249.171 183.189 249.798L183.189 249.798C182.201 250.983 181.214 252.167 180.184 253.304C178.258 255.431 176.312 257.545 174.268 259.524C171.732 261.978 169.133 264.356 166.475 266.639C163.467 269.223 160.387 271.702 157.293 274.154C157.129 274.283 156.966 274.414 156.803 274.545L156.802 274.545L156.801 274.546C155.223 275.81 153.646 277.073 151.619 277.463C151.04 277.574 150.498 277.902 149.953 278.232C149.519 278.495 149.083 278.759 148.624 278.916C145.462 279.998 142.284 281.029 139.085 281.964C137.121 282.538 135.117 282.947 133.116 283.341C131.871 283.586 124.741 284.865 119.997 285.642C115.253 286.419 99.5643 286.419 95.6474 286.327C93.4495 286.276 91.252 286.19 89.0551 286.095L88.9417 286.09C88.494 286.072 88.0182 286.053 87.6293 285.854C85.4716 284.75 83.8021 285.952 82.1103 287.17L81.9885 287.258C79.7673 288.855 78.4078 291.258 77.0646 293.72C76.3509 295.027 75.5947 296.305 74.8386 297.584C74.0249 298.959 73.2112 300.334 72.4505 301.746C71.4436 303.615 70.5456 305.561 69.6485 307.505L69.6482 307.505C69.4869 307.855 69.3256 308.204 69.1638 308.553C67.9778 311.109 66.1986 312.596 63.6458 313.146C62.3771 313.42 61.2902 312.994 60.206 312.57C59.8041 312.413 59.4027 312.256 58.9925 312.135C58.1896 311.897 57.5424 309.448 57.8287 308.479C58.6646 305.65 59.502 302.821 60.3395 299.993L60.3397 299.992C62.0898 294.081 63.8399 288.171 65.5748 282.254C66.7861 278.123 67.9689 273.981 69.1516 269.839L69.1523 269.837C69.4864 268.667 69.8205 267.497 70.1553 266.327C70.3147 265.77 70.4661 265.21 70.6175 264.65L70.6175 264.65C70.8686 263.721 71.1195 262.793 71.4068 261.879C71.5009 261.579 71.8904 261.21 72.1553 261.198C74.0692 261.112 75.9069 261.641 77.6527 262.45C80.9535 263.979 83.4935 266.558 85.3579 269.992C85.8523 270.902 86.7151 271.23 87.8035 271.013C88.3281 270.908 88.8575 270.829 89.3868 270.751L89.387 270.751L89.3871 270.751L89.3873 270.75L89.3875 270.75L89.3876 270.75L89.3878 270.75L89.388 270.75C90.1968 270.63 91.0052 270.509 91.795 270.298C93.5517 269.827 95.3298 269.811 97.1074 269.795C98.252 269.785 99.3963 269.774 100.534 269.643C101.317 269.552 102.103 269.501 102.89 269.449C103.939 269.38 104.989 269.311 106.028 269.15C107.918 268.856 109.798 268.486 111.679 268.117L111.68 268.116C112.571 267.941 113.462 267.766 114.355 267.599C115.077 267.463 115.801 267.335 116.525 267.207C117.92 266.961 119.316 266.714 120.702 266.414C122.475 266.03 124.234 265.561 125.992 265.093L126.628 264.924C128.485 264.43 130.339 263.921 132.193 263.411L132.197 263.41C132.977 263.196 133.757 262.982 134.537 262.769C134.62 262.746 134.703 262.722 134.786 262.698L134.903 262.664C134.861 262.638 134.818 262.613 134.776 262.589C134.684 262.535 134.591 262.481 134.504 262.42C134.234 262.232 133.956 262.054 133.678 261.877L133.677 261.876C133.042 261.47 132.407 261.064 131.866 260.535C130.651 259.345 131.067 257.367 132.611 256.84C133.789 256.438 135.002 256.036 136.218 255.943C137.856 255.819 139.349 255.205 140.843 254.59L140.843 254.59L140.843 254.59L140.843 254.59L140.843 254.59L140.843 254.59L140.843 254.59L140.844 254.59C141.443 254.343 142.043 254.096 142.653 253.881C144.093 253.372 144.957 252.415 145.681 250.952C146.029 250.247 146.539 249.648 147.052 249.048C147.412 248.625 147.774 248.201 148.082 247.737C149.674 245.334 151.222 242.892 152.73 240.421C153.05 239.895 153.307 239.321 153.565 238.746L153.565 238.746C153.762 238.306 153.959 237.867 154.184 237.448C154.713 236.466 155.251 235.473 155.905 234.599L155.99 234.484L155.99 234.484L155.99 234.484L155.991 234.484L155.991 234.484L155.991 234.483L155.991 234.483L155.991 234.483C157.49 232.477 158.992 230.465 160.622 228.6C161.51 227.583 162.491 226.669 163.472 225.755L163.472 225.754C163.935 225.323 164.399 224.891 164.853 224.448C165.082 224.224 165.302 223.982 165.494 223.719C165.825 223.267 165.961 222.891 165.462 222.357C165.376 222.265 165.289 222.172 165.202 222.08L165.071 221.941C163.768 220.558 162.453 219.162 161.741 217.248C161.666 217.048 161.591 216.847 161.516 216.646L161.515 216.646C160.944 215.123 160.367 213.586 160.042 211.991C159.604 209.844 159.78 207.658 160.347 205.495C161.141 202.468 162.801 200.174 165.051 198.528C166.439 197.512 167.899 196.624 169.359 195.735L169.359 195.735L169.36 195.735L169.36 195.735L169.36 195.735L169.36 195.734L169.36 195.734L169.361 195.734C170.442 195.076 171.525 194.418 172.578 193.707C173.392 193.158 174.089 192.359 174.769 191.579C174.834 191.504 174.899 191.43 174.963 191.356C178.023 187.861 180.155 183.632 182.279 179.419L182.28 179.418C182.505 178.971 182.731 178.523 182.958 178.076C185.011 174.032 186.854 169.846 188.69 165.667C189.219 164.463 189.672 163.217 190.126 161.971C190.526 160.87 190.927 159.768 191.38 158.695C191.739 157.847 192.18 157.045 192.622 156.242C192.947 155.652 193.272 155.062 193.564 154.453C193.878 153.799 194.164 153.127 194.45 152.456L194.45 152.455L194.451 152.455L194.451 152.455L194.451 152.454L194.451 152.454L194.451 152.454L194.451 152.454L194.451 152.454C194.885 151.436 195.318 150.42 195.845 149.469C196.221 148.789 196.768 148.229 197.313 147.669C197.542 147.435 197.77 147.201 197.986 146.958C198.254 146.655 198.528 146.358 198.802 146.061L198.803 146.059C199.088 145.749 199.372 145.44 199.652 145.125C200.145 144.568 200.633 144.003 201.105 143.424C202.014 142.311 202.927 141.202 203.84 140.094L203.842 140.092C206.096 137.358 208.35 134.623 210.529 131.814C213.082 128.524 215.511 125.105 217.897 121.656C218.845 120.285 219.7 118.831 220.555 117.377C220.936 116.729 221.317 116.082 221.706 115.442C221.728 115.406 221.746 115.366 221.764 115.326C221.79 115.27 221.815 115.214 221.852 115.168C222.47 114.4 223.081 113.625 223.692 112.849C225.128 111.028 226.563 109.208 228.081 107.481C230.335 104.918 232.916 102.793 235.717 101.023C236.144 100.754 236.556 100.447 236.967 100.141L236.968 100.141C237.616 99.659 238.263 99.1779 238.966 98.8422C239.132 98.763 239.299 98.6819 239.467 98.6003C240.81 97.9489 242.218 97.2659 243.605 97.2339C246.53 97.1662 249.571 97.2036 252.026 99.538C252.492 99.9802 252.616 99.876 252.66 99.2844C252.701 98.7197 252.786 98.1382 252.871 97.5564L252.871 97.5558C253.069 96.2001 253.267 94.8433 252.922 93.696C252.714 93.0023 252.641 92.3023 252.569 91.6083C252.487 90.8233 252.406 90.046 252.131 89.2945C251.209 86.782 250.387 84.2224 249.566 81.664L249.56 81.645L249.555 81.6295C249.435 81.2563 249.315 80.883 249.195 80.51C248.937 79.7116 248.728 78.873 248.633 78.0332C248.565 77.433 248.542 76.8261 248.519 76.2193V76.2187C248.496 75.596 248.472 74.9733 248.4 74.358C248.142 72.1686 248.814 70.2448 249.489 68.3134C249.612 67.9608 249.735 67.608 249.853 67.2532C251.288 62.9317 253.975 59.6635 256.876 56.5943C259.374 53.9518 263.512 53.1204 266.859 52.4688C268.095 52.2281 276.772 51.9979 281.354 51.8763L281.354 51.8763L281.354 51.8763L281.355 51.8763C282.849 51.8366 283.908 51.8086 284.13 51.7954C285.034 51.7421 285.646 51.2675 286.258 50.758C287.521 49.7063 287.846 48.0752 288.165 46.4701C288.196 46.3119 288.228 46.1539 288.26 45.9967C288.268 45.9585 288.275 45.9212 288.282 45.8847C288.365 45.4639 288.422 45.1689 288.983 45.1901C290.854 45.261 291.816 46.6405 292.733 48.2167C293.764 49.9917 294.6 51.8425 294.887 53.9582C295.236 56.5343 295.048 58.9272 293.426 61.0487C292.106 62.7741 290.57 64.0927 288.835 65.1993C288.604 65.3462 288.459 66.1241 288.586 66.4563C289.894 69.8616 289.991 73.4515 289.864 77.0555C289.833 77.9303 289.707 78.8004 289.581 79.6708C289.463 80.4955 289.344 81.3203 289.305 82.1496C289.194 84.5277 289.625 86.815 290.469 89.0267C291.043 90.5271 290.64 91.948 289.679 93.1272C289.514 93.3292 289.309 93.4983 289.106 93.666C288.819 93.9018 288.537 94.1348 288.375 94.4526C288.01 95.1714 287.756 96.0364 287.696 96.8608C287.651 97.4915 287.711 98.1305 287.771 98.7709L287.771 98.7714L287.771 98.7716C287.808 99.1697 287.846 99.5683 287.858 99.9659C287.905 101.496 287.39 102.805 286.694 104.112C285.436 106.476 283.775 108.215 281.364 108.785C279.299 109.273 277.154 109.302 275.16 108.534C272.896 107.663 270.689 106.548 268.558 105.314C267.953 104.964 267.474 104.335 266.996 103.706C266.781 103.425 266.567 103.143 266.342 102.887C266.008 102.508 265.84 102.398 265.397 102.928C263.813 104.821 262.662 106.972 261.731 109.347C261.218 110.658 261.551 111.736 261.905 112.883L261.947 113.018C261.981 113.127 262.014 113.237 262.048 113.346C262.54 114.934 263.029 116.515 262.991 118.254C262.972 119.114 262.987 119.977 263.002 120.839V120.84V120.841V120.841V120.842V120.842V120.843V120.844C263.025 122.208 263.048 123.572 262.939 124.923C262.822 126.368 262.534 127.796 262.247 129.223L262.247 129.223L262.247 129.224L262.247 129.224L262.247 129.225L262.247 129.225C262.131 129.799 262.016 130.372 261.911 130.947C261.8 131.557 261.692 132.169 261.583 132.78L261.583 132.78L261.583 132.78L261.583 132.781L261.583 132.781L261.583 132.781L261.583 132.782L261.583 132.782C261.254 134.631 260.926 136.48 260.533 138.311C260.352 139.159 260.102 139.988 259.852 140.817L259.852 140.817L259.852 140.817L259.852 140.817L259.852 140.818L259.852 140.818L259.852 140.818L259.852 140.818L259.852 140.818C259.648 141.496 259.443 142.175 259.276 142.864C259.083 143.658 258.888 144.452 258.693 145.246L258.692 145.249L258.691 145.252L258.69 145.255L258.69 145.258L258.689 145.261L258.689 145.262C257.925 148.367 257.161 151.474 256.542 154.617C256.012 157.308 255.707 160.076 255.529 162.829C255.418 164.55 255.435 166.281 255.451 168.013V168.013V168.013V168.013V168.013V168.014V168.014V168.014V168.016C255.461 168.973 255.47 169.93 255.458 170.886C255.448 171.608 255.415 172.331 255.382 173.053L255.382 173.054C255.339 173.973 255.297 174.892 255.304 175.81C255.307 176.177 255.309 176.543 255.311 176.91V176.91C255.325 179.336 255.34 181.766 255.529 184.176C255.717 186.581 256.121 188.977 256.588 191.336C256.972 193.275 258.149 194.772 259.317 196.177C259.925 196.908 260.598 197.568 261.273 198.228L261.273 198.228L261.273 198.228L261.273 198.228L261.273 198.229L261.273 198.229L261.273 198.229L261.274 198.229L261.274 198.229C261.746 198.691 262.218 199.153 262.667 199.64C262.975 199.973 263.252 200.345 263.529 200.716L263.529 200.716L263.529 200.716L263.529 200.716L263.53 200.716L263.53 200.716L263.53 200.716L263.53 200.717L263.53 200.717C263.874 201.178 264.218 201.639 264.62 202.025C265.931 203.284 267.265 204.514 268.598 205.743L268.598 205.743L268.599 205.744L268.599 205.744L268.599 205.744L268.599 205.744L268.599 205.744L268.6 205.744L268.601 205.746L268.603 205.748L268.605 205.749C269.615 206.681 270.625 207.612 271.626 208.557C272.525 209.405 273.41 210.271 274.295 211.137L274.296 211.139C275.191 212.015 276.086 212.891 276.995 213.748C278.238 214.919 279.497 216.075 280.813 217.136C281.432 217.636 282.081 218.089 282.729 218.542L282.729 218.542L282.729 218.543L282.73 218.543L282.73 218.543L282.73 218.543L282.73 218.543L282.73 218.543L282.73 218.544L282.731 218.544L282.731 218.544L282.731 218.544L282.731 218.544L282.732 218.544L282.732 218.545C283.402 219.013 284.073 219.482 284.711 220.002C285.477 220.626 286.072 220.275 286.663 219.925C286.867 219.805 287.07 219.685 287.28 219.605C288.984 218.955 290.332 219.2 290.972 221.05C291.1 221.421 291.295 221.754 291.492 222.09C291.85 222.7 292.212 223.317 292.18 224.178C292.171 224.448 292.686 224.769 293.127 225.044C293.233 225.11 293.334 225.173 293.423 225.232C294.721 226.097 296.035 226.932 297.35 227.765C297.63 227.943 297.92 228.105 298.21 228.267L298.21 228.267C298.768 228.579 299.325 228.89 299.81 229.31C300.304 229.737 300.752 230.232 301.2 230.727C301.65 231.223 302.099 231.719 302.594 232.147C303.614 233.029 304.192 234.242 304.767 235.448L304.767 235.448C304.978 235.891 305.188 236.333 305.42 236.757C306.06 237.928 306.43 239.365 306.643 240.739C306.93 242.59 307.046 244.494 307.039 246.375C307.036 247.161 306.614 248.004 306.227 248.713C305.809 249.476 305.183 249.585 304.579 248.847C304.53 248.787 304.46 248.747 304.391 248.707C304.359 248.689 304.326 248.671 304.296 248.65C304.292 248.696 304.287 248.742 304.283 248.788L304.277 248.853L304.27 248.924L304.266 248.968C304.261 249.008 304.257 249.048 304.252 249.087C304.213 249.403 304.183 249.722 304.152 250.041V250.041C304.076 250.825 304.001 251.61 303.806 252.354C303.675 252.853 303.107 253.512 302.714 253.534C302.412 253.55 302.094 253.232 301.779 252.918L301.779 252.918C301.653 252.792 301.527 252.666 301.403 252.563C301.282 252.462 301.178 252.331 301.077 252.202L301.045 252.16C300.981 252.08 300.925 251.992 300.868 251.904C300.85 251.876 300.833 251.849 300.815 251.821L300.793 251.788L300.774 251.832L300.737 251.922L300.736 251.924C300.71 251.988 300.683 252.053 300.656 252.116C300.641 252.151 300.626 252.186 300.61 252.221C300.554 252.347 300.504 252.482 300.454 252.617L300.454 252.617L300.454 252.617C300.343 252.92 300.231 253.223 300.039 253.43C299.296 254.228 298.297 253.917 297.991 252.796C297.832 252.213 297.699 251.62 297.567 251.027L297.567 251.027L297.567 251.027L297.567 251.027L297.567 251.026C297.384 250.205 297.201 249.385 296.947 248.593C296.842 248.266 296.755 247.933 296.668 247.599C296.415 246.624 296.161 245.647 295.45 244.826C294.938 244.234 294.625 243.418 294.313 242.606C294.191 242.29 294.07 241.974 293.937 241.673C293.139 239.858 291.821 238.672 290.296 237.714C289.881 237.454 289.468 237.167 289.108 236.822C288.309 236.055 287.755 236.473 287.269 237.253C286.466 238.543 285.133 239.018 283.895 238.275C281.997 237.137 280.446 235.642 279.931 233.081C279.835 232.607 279.216 232.189 278.761 231.9C277.394 231.029 276.019 230.175 274.644 229.321C272.364 227.905 270.083 226.489 267.841 224.999C265.044 223.141 262.319 221.141 259.595 219.142L259.569 219.123L259.543 219.104L259.061 218.751L258.774 218.54C254.485 215.396 250.212 212.223 245.939 209.051L245.938 209.05L245.937 209.049L245.935 209.048L245.934 209.047L245.933 209.046L245.931 209.046L245.925 209.041C245.088 208.419 244.25 207.798 243.413 207.176C242.476 206.481 241.545 205.775 240.615 205.068L240.613 205.067L240.609 205.064C239.959 204.571 239.309 204.077 238.657 203.588C238.396 203.392 238.121 203.215 237.838 203.065C236.994 202.615 236.746 202.777 236.678 203.799C236.677 203.822 236.677 203.846 236.678 203.87C236.678 203.884 236.678 203.899 236.678 203.913L236.624 208.222L236.623 208.289V208.29V208.291V208.292V208.293V208.294V208.294C236.575 212.216 236.526 216.138 236.474 220.06C236.458 221.321 237.043 222.288 237.62 223.241L237.621 223.242C237.737 223.435 237.853 223.627 237.964 223.82C239.998 227.377 242.074 230.903 244.17 234.412C244.746 235.375 245.342 236.322 245.938 237.27C246.837 238.699 247.737 240.128 248.563 241.61C248.983 242.361 249.233 243.232 249.483 244.104L249.484 244.104C249.593 244.487 249.703 244.869 249.828 245.242C249.846 245.298 249.866 245.354 249.885 245.411C249.924 245.524 249.964 245.637 250.004 245.75L250.004 245.75C250.165 246.205 250.326 246.661 250.427 247.132C251.243 250.947 250.875 254.733 250.068 258.477C250.014 258.727 249.96 258.978 249.907 259.229C249.405 261.568 248.902 263.917 248.17 266.166C247.584 267.969 246.852 269.711 246.12 271.453L246.119 271.454L246.119 271.454L246.119 271.454L246.119 271.454L246.119 271.454L246.119 271.454L246.119 271.454C245.766 272.294 245.414 273.133 245.077 273.98C244.489 275.458 243.921 276.946 243.359 278.437C242.407 280.965 241.46 283.495 240.524 286.031C240.184 286.951 239.856 287.876 239.528 288.802L239.528 288.802L239.528 288.803L239.527 288.803L239.527 288.803L239.527 288.803L239.527 288.803C238.869 290.658 238.212 292.512 237.464 294.318C236.387 296.92 235.19 299.46 233.995 301.997C233.823 302.362 233.652 302.726 233.48 303.09C232.733 304.68 231.968 306.258 231.202 307.836L231.199 307.842C230.459 309.368 229.719 310.894 228.996 312.43C228.335 313.832 227.692 315.246 227.049 316.659C226.362 318.17 225.675 319.68 224.967 321.178C223.96 323.305 222.905 325.404 221.819 327.481C220.915 329.209 221.177 330.015 222.223 331.607C223.357 333.332 225.118 333.909 226.865 334.36C231.656 335.595 236.457 336.78 241.257 337.965L241.268 337.968L241.506 338.026C241.99 338.146 242.479 338.235 242.969 338.324L242.97 338.324L242.97 338.324L242.97 338.324L242.971 338.324L242.971 338.324L242.972 338.324L242.972 338.324C243.522 338.424 244.071 338.524 244.612 338.667C247.318 339.382 248.675 341.629 249.399 344.416C249.862 346.199 249.998 348.114 248.741 349.595C248.265 350.155 247.398 350.571 246.707 350.573C237.81 350.607 228.912 350.613 220.014 350.618C214.413 350.622 208.811 350.625 203.21 350.636C202.557 350.637 202.51 350.416 202.46 349.768C202.41 349.108 202.306 348.45 202.202 347.793C202.05 346.827 201.898 345.864 201.916 344.903C202.007 340.286 203.44 336.151 205.947 332.52C206.128 332.258 206.422 332.084 206.712 331.913C207.034 331.722 207.351 331.535 207.503 331.232C208.234 329.772 208.861 328.22 209.341 326.631C210.111 324.087 210.876 321.519 211.37 318.896C211.596 317.691 211.924 316.522 212.252 315.353C212.66 313.9 213.068 312.445 213.283 310.915C213.511 309.3 214.106 307.744 214.697 306.197C214.88 305.717 215.063 305.238 215.235 304.759C215.821 303.122 216.426 301.494 217.031 299.866C217.97 297.337 218.91 294.807 219.778 292.247C220.396 290.422 220.909 288.551 221.421 286.68C221.714 285.612 222.007 284.544 222.319 283.485C222.98 281.242 223.651 279.001 224.408 276.799C224.578 276.305 224.483 276.296 224.244 276.275C224.2 276.271 224.15 276.267 224.096 276.259C220.902 275.779 217.755 275.821 214.776 277.427C214.123 277.779 213.664 277.705 213.231 277.093C212.79 276.467 213.02 276.011 213.41 275.437C215.739 272.013 217.185 268.114 218.294 264.001C218.411 263.57 218.53 263.141 218.649 262.711L218.65 262.71C219.37 260.118 220.089 257.534 220.069 254.779C220.054 252.693 219.599 250.821 218.328 249.075C218.049 248.692 217.792 248.29 217.537 247.889C216.774 246.695 216.022 245.517 214.714 244.901C214.052 244.589 213.398 244.252 212.745 243.916C212.065 243.566 211.385 243.216 210.695 242.894C210.174 242.65 209.652 242.404 209.131 242.158L209.123 242.154C207.058 241.179 204.993 240.203 202.887 239.361C201.608 238.849 200.283 238.483 198.958 238.116L198.958 238.116L198.957 238.116L198.957 238.116L198.956 238.116L198.956 238.116L198.955 238.116L198.955 238.115C198.354 237.949 197.753 237.783 197.156 237.603C197.038 237.568 196.922 237.526 196.806 237.484C196.714 237.451 196.621 237.418 196.527 237.387C195.166 236.949 193.977 237.025 193.053 238.508C192.647 239.158 192.09 239.688 191.506 240.244L191.504 240.245C191.447 240.3 191.39 240.354 191.332 240.41C191.273 240.465 191.215 240.522 191.156 240.578C188.957 243.027 186.855 245.472 184.762 247.926ZM234.923 204.737L234.924 204.736C235.041 204.074 235.158 203.411 235.222 202.742L235.24 202.555C235.377 201.121 235.516 199.666 235.425 198.239C235.378 197.5 235.204 196.774 235.029 196.046C234.888 195.456 234.746 194.865 234.672 194.266C234.281 191.116 233.929 187.957 233.658 184.791C233.422 182.038 233.264 179.276 233.107 176.515V176.515V176.515V176.515V176.515V176.515V176.514V176.514L233.103 176.442C233.082 176.08 233.062 175.717 233.041 175.355C232.882 172.599 232.735 169.841 232.64 167.081C232.548 164.436 232.503 161.788 232.458 159.141V159.14L232.438 158.026C232.435 157.86 232.486 157.693 232.536 157.525C232.569 157.418 232.601 157.31 232.62 157.202C232.631 157.139 232.643 157.076 232.656 157.012L232.672 156.934L232.693 156.833C232.766 156.492 232.838 156.149 232.811 155.818C232.782 155.453 232.709 155.09 232.637 154.728C232.539 154.237 232.441 153.748 232.452 153.259C232.524 150.024 232.653 146.79 232.782 143.556C232.802 143.079 232.821 142.603 232.839 142.126C232.867 141.431 232.946 140.736 233.04 140.048C233.305 138.106 233.58 136.165 233.855 134.225L234.049 132.859C234.071 132.701 234.101 132.545 234.131 132.388L234.131 132.387C234.145 132.315 234.159 132.242 234.172 132.169C234.177 132.213 234.182 132.257 234.187 132.301C234.191 132.338 234.196 132.375 234.201 132.412L234.201 132.412C234.222 132.586 234.244 132.76 234.247 132.934C234.311 136.565 234.37 140.197 234.43 143.829L234.452 145.191C234.472 146.411 234.493 147.631 234.514 148.851C234.563 151.754 234.612 154.658 234.653 157.562C234.679 159.486 234.7 161.409 234.721 163.332C234.76 166.829 234.798 170.326 234.871 173.822C234.925 176.43 235.072 179.039 235.277 181.637C235.427 183.544 235.647 185.444 235.867 187.344L235.867 187.345C235.936 187.947 236.006 188.549 236.073 189.151C236.167 189.994 236.27 190.835 236.373 191.677C236.552 193.148 236.732 194.618 236.866 196.094C237.037 197.969 237.836 199.488 238.986 200.69C239.826 201.568 240.773 202.315 241.719 203.062L241.72 203.063C242.093 203.358 242.467 203.653 242.833 203.956C243.6 204.589 244.364 205.228 245.127 205.866L245.128 205.867C247.044 207.47 248.96 209.073 250.928 210.587C252.687 211.941 254.497 213.209 256.308 214.477L256.308 214.477L256.309 214.478C257.186 215.092 258.063 215.706 258.934 216.33C259.768 216.928 260.6 217.531 261.431 218.135L261.432 218.136L261.433 218.137L261.435 218.138L261.436 218.139L261.437 218.14L261.438 218.141L261.439 218.141C262.921 219.217 264.402 220.293 265.902 221.335L266.184 221.531C268.933 223.443 271.685 225.357 274.499 227.139C275.837 227.987 277.256 228.675 278.671 229.361L278.672 229.361L278.672 229.362C279.035 229.538 279.398 229.714 279.759 229.892C279.969 229.996 280.453 229.877 280.553 229.688C280.789 229.241 280.942 228.735 281.094 228.232L281.094 228.232C281.124 228.132 281.154 228.031 281.185 227.932C281.777 226.026 282.526 224.247 283.803 222.763C284.767 221.643 284.631 221.306 283.292 220.67C283.217 220.635 283.142 220.599 283.067 220.564C282.508 220.3 281.943 220.034 281.435 219.673C280.491 219 279.574 218.271 278.692 217.497C277.909 216.81 277.124 216.126 276.339 215.442C273.691 213.135 271.044 210.828 268.47 208.421C266.073 206.18 263.796 203.765 261.566 201.312C261.255 200.97 260.941 200.632 260.627 200.293L260.627 200.293C258.729 198.245 256.823 196.188 255.62 193.47C255.455 193.098 255.264 192.74 255.074 192.381L255.073 192.381C254.519 191.339 253.966 190.298 254.048 188.93C254.098 188.093 253.998 187.244 253.899 186.396C253.863 186.089 253.828 185.783 253.799 185.477C253.721 184.65 253.629 183.824 253.537 182.998C253.348 181.31 253.159 179.622 253.096 177.928C253.01 175.641 253.029 173.348 253.049 171.055C253.057 170.068 253.066 169.081 253.066 168.094C253.066 167.862 253.06 167.63 253.054 167.397C253.041 166.89 253.027 166.383 253.077 165.883C253.317 163.451 253.562 161.018 253.886 158.6C253.95 158.127 254.011 157.654 254.073 157.18V157.18C254.375 154.864 254.678 152.543 255.177 150.28C255.613 148.307 256.148 146.363 256.683 144.418C257.107 142.879 257.53 141.34 257.905 139.787C258.174 138.671 258.47 137.563 258.766 136.455L258.766 136.454L258.766 136.453L258.766 136.453L258.767 136.452L258.767 136.451L258.767 136.451L258.767 136.45C259.51 133.672 260.252 130.894 260.568 127.988C260.636 127.355 260.778 126.724 260.92 126.095C261.128 125.17 261.335 124.25 261.306 123.335C261.202 120.026 260.386 116.838 259.564 113.655C258.336 108.901 256.206 104.936 252.522 102.113C250.396 100.485 248.169 99.2924 245.531 99.6756C244.575 99.8145 243.628 100.037 242.681 100.26L242.68 100.26C242.225 100.367 241.769 100.474 241.313 100.572C238.721 101.128 236.428 102.419 234.362 104.234C233.153 105.297 231.973 106.405 230.825 107.551C229.677 108.697 228.529 109.855 227.483 111.116C226.511 112.289 225.606 113.534 224.701 114.779C224.504 115.05 224.308 115.321 224.11 115.591C222.556 117.716 221.006 119.846 219.485 122.003C218.819 122.947 218.167 123.904 217.514 124.861C216.528 126.308 215.542 127.754 214.51 129.157C212.638 131.701 210.694 134.181 208.722 136.627C206.012 139.989 203.255 143.302 200.497 146.614C200.263 146.896 199.992 147.142 199.722 147.388L199.722 147.388C199.398 147.683 199.074 147.978 198.814 148.333C196.818 151.053 194.938 153.891 193.603 157.095C192.373 160.05 191.188 163.028 190.003 166.006L190.002 166.008L190.001 166.011L190 166.012C188.935 168.688 187.87 171.364 186.772 174.023C184.992 178.335 183.033 182.536 180.668 186.501L180.495 186.792C179.228 188.919 177.961 191.046 176.176 192.596C173.849 194.616 171.427 196.496 169.006 198.375L169.006 198.375L169.006 198.375L169.005 198.375L169.005 198.376L169.005 198.376L169.005 198.376L169.005 198.376C168.372 198.867 167.74 199.358 167.11 199.851C165.067 201.449 163.451 203.465 162.656 206.121C161.68 209.383 162.179 212.622 163.542 215.595C165.219 219.254 167.873 222.05 170.583 224.715C173.59 227.672 177.085 229.793 180.856 231.157C185.702 232.909 190.577 234.61 195.703 235.107C197.042 235.236 198.376 235.435 199.709 235.633L199.71 235.633L199.711 235.633L199.712 235.633L199.712 235.633L199.713 235.633L199.714 235.633L199.714 235.633L199.715 235.633L199.715 235.633L199.716 235.634L199.716 235.634L199.717 235.634L199.717 235.634L199.718 235.634C201.206 235.855 202.694 236.076 204.188 236.202C207.496 236.481 210.817 236.635 214.134 236.656C215.625 236.665 217.117 236.548 218.609 236.431C219.556 236.357 220.503 236.283 221.451 236.241C224.027 236.127 226.467 235.362 228.871 234.397C230.486 233.749 231.981 232.857 232.571 230.889C232.914 229.742 233.085 228.516 233.226 227.309L233.262 226.999L233.262 226.997C233.561 224.45 233.859 221.899 234.029 219.339C234.185 216.981 234.266 214.616 234.351 212.164L234.351 212.163V212.162V212.162V212.161C234.383 211.238 234.415 210.303 234.452 209.351C234.473 209.045 234.49 208.738 234.506 208.431C234.544 207.739 234.582 207.046 234.666 206.361C234.732 205.818 234.827 205.279 234.923 204.74L234.923 204.74L234.923 204.739L234.923 204.738L234.923 204.738L234.923 204.737L234.923 204.737ZM148.985 275.805C149.092 275.915 149.339 275.986 149.46 275.923C150.012 275.639 150.574 275.372 151.136 275.104L151.136 275.104L151.137 275.104L151.137 275.104L151.137 275.103L151.138 275.103L151.138 275.103L151.139 275.103C152.511 274.449 153.884 273.795 155.121 272.9C157.329 271.303 159.483 269.612 161.637 267.921C163.328 266.594 165.019 265.267 166.736 263.985C170.48 261.189 173.763 257.785 177.046 254.38C177.686 253.717 178.325 253.053 178.968 252.394C179.966 251.372 180.905 250.275 181.843 249.178L181.844 249.178L181.847 249.174L182.08 248.902C182.204 248.757 182.329 248.612 182.454 248.467C183.57 247.17 184.677 245.861 185.783 244.553L185.784 244.551C186.099 244.18 186.413 243.808 186.728 243.436C186.893 243.241 187.059 243.046 187.224 242.851C187.569 242.444 187.915 242.039 188.26 241.633C189.515 240.16 190.771 238.687 191.987 237.174C192.131 236.996 191.951 236.105 191.787 236.049C191.097 235.813 190.395 235.621 189.693 235.428C188.803 235.184 187.913 234.94 187.05 234.608L186.609 234.439L186.609 234.438C183.035 233.065 179.457 231.689 175.96 230.093C172.757 228.63 169.79 226.622 167.138 224.073C167.097 224.034 166.907 224.086 166.886 224.143C166.12 226.232 164.695 227.655 163.264 229.084L163.263 229.085C162.937 229.41 162.611 229.736 162.292 230.07C160.79 231.644 159.3 233.258 157.984 235.024C157.133 236.166 156.41 237.429 155.686 238.692L155.686 238.692C155.42 239.156 155.154 239.62 154.882 240.078C154.575 240.595 154.25 241.104 153.925 241.614C153.129 242.863 152.331 244.113 151.785 245.49C150.567 248.561 148.679 251.008 146.708 253.392C144.77 255.736 142.13 256.609 139.523 257.471L139.517 257.473L139.198 257.578L138.959 257.658L138.797 257.712C137.839 258.034 136.854 258.25 135.868 258.467L135.868 258.467L135.868 258.467L135.868 258.467L135.867 258.467L135.867 258.467L135.867 258.467L135.867 258.467L135.866 258.467C135.326 258.586 134.786 258.704 134.25 258.84C134.113 258.875 133.991 258.978 133.869 259.082C133.812 259.13 133.755 259.177 133.697 259.219C133.76 259.303 133.824 259.413 133.889 259.522L133.889 259.523C134.028 259.759 134.167 259.995 134.291 259.985C135.549 259.884 136.49 260.615 137.414 261.333C137.66 261.524 137.905 261.715 138.155 261.888C139.374 262.735 140.57 263.647 141.28 265.224C141.741 266.247 142.36 267.181 142.977 268.112L142.978 268.113L142.978 268.113L142.979 268.114C143.168 268.399 143.356 268.684 143.54 268.971C144.299 270.153 145.091 271.308 145.955 272.565L145.956 272.566L145.956 272.567L145.957 272.568L146.14 272.834C146.303 273.006 146.466 273.178 146.63 273.35L146.786 273.514L146.787 273.515C147.516 274.283 148.245 275.051 148.985 275.805ZM211.134 240.357C211.904 240.82 212.725 241.172 213.546 241.525C215.164 242.22 216.782 242.915 218.017 244.455C218.392 244.922 218.823 245.33 219.255 245.738L219.255 245.738L219.256 245.738L219.256 245.738L219.256 245.739L219.256 245.739L219.256 245.739L219.256 245.739C219.537 246.004 219.818 246.27 220.084 246.552C220.964 247.486 221.268 248.734 221.571 249.977L221.571 249.978L221.615 250.16L221.656 250.323L221.686 250.445L221.704 250.518C222.536 253.782 222.347 257.159 221.618 260.289L221.477 260.896C220.505 265.078 219.519 269.322 217.455 273.075C217.216 273.511 217.09 273.744 217.748 273.765C219.518 273.822 221.288 273.897 223.058 273.972H223.058H223.058H223.059H223.059H223.059H223.059H223.059C225.009 274.054 226.958 274.137 228.908 274.196C230.131 274.233 231.356 274.224 232.58 274.215C233.424 274.209 234.268 274.203 235.111 274.212C237.321 274.235 239.467 273.875 241.478 272.816C241.52 272.794 241.562 272.772 241.605 272.75L241.724 272.688C242.412 272.334 243.189 271.933 243.499 271.297C244.289 269.675 244.849 267.889 245.359 266.118C246.106 263.525 246.845 260.916 247.365 258.258C247.809 255.989 248.034 253.648 248.173 251.325C248.215 250.626 248.11 249.918 248.004 249.208C247.92 248.644 247.836 248.079 247.825 247.515C247.784 245.303 246.856 243.502 245.928 241.701L245.927 241.7C245.873 241.595 245.819 241.489 245.765 241.384C245.548 240.962 245.271 240.582 244.994 240.201L244.994 240.201C244.777 239.903 244.56 239.605 244.372 239.287C242.881 236.771 241.397 234.25 239.913 231.728C238.864 229.947 237.816 228.166 236.765 226.387C236.664 226.216 236.534 226.067 236.404 225.918L236.351 225.859C236.329 225.832 236.306 225.806 236.283 225.78L236.255 225.746C236.245 225.734 236.235 225.721 236.225 225.708C236.166 225.809 236.098 225.907 236.029 226.005C235.88 226.22 235.73 226.435 235.686 226.675C235.584 227.231 235.517 227.795 235.449 228.359C235.392 228.839 235.335 229.32 235.256 229.796C234.799 232.554 233.629 234.673 231.327 236.037C228.152 237.917 224.742 238.72 221.256 239.172C219.246 239.433 217.199 239.475 215.175 239.4C213.958 239.356 212.745 239.186 211.531 239.017L211.53 239.016C210.873 238.925 210.216 238.833 209.559 238.761C209.381 238.741 209.197 238.802 209.013 238.862C208.928 238.89 208.843 238.918 208.758 238.938C208.782 238.959 208.805 238.981 208.829 239.003L208.867 239.038L208.913 239.081C209.043 239.2 209.173 239.32 209.308 239.431C209.337 239.454 209.369 239.471 209.409 239.493C209.471 239.526 209.553 239.57 209.669 239.663C209.823 239.735 209.979 239.803 210.136 239.871C210.475 240.018 210.815 240.165 211.134 240.357ZM253.093 64.7327C251.811 66.851 251.036 69.2666 250.645 71.8059C250.248 74.3863 250.192 76.9957 250.862 79.5143C251.258 81.0015 251.705 82.4713 252.153 83.9409L252.153 83.9414L252.153 83.9419C252.671 85.6424 253.189 87.3428 253.626 89.0696C253.896 90.1362 254.507 90.6355 255.182 90.904C258.369 92.1712 261.831 90.6302 263.81 87.3224C264.347 86.4246 264.037 86.0561 263.491 85.4284C262.752 84.5788 262.106 83.5946 261.555 82.5743C260.734 81.0513 261.082 79.4986 262.023 78.2686C262.964 77.0377 264.377 76.7642 265.692 77.2799C267.195 77.8691 268.277 79.1663 269.047 80.7549C269.083 80.8294 269.109 80.9102 269.135 80.991C269.147 81.0285 269.159 81.0661 269.172 81.103C269.181 81.0827 269.19 81.0626 269.199 81.0425C269.218 80.9994 269.237 80.9563 269.25 80.911C269.364 80.5188 269.474 80.1243 269.583 79.7296C270.159 77.6584 270.737 75.5816 271.9 73.8145C272.807 72.437 273.784 71.0634 274.936 69.9639C275.797 69.1419 276.861 68.57 277.904 68.0089L277.904 68.0087L277.905 68.0085C278.057 67.9266 278.209 67.8449 278.359 67.7627C278.716 67.5685 279.071 67.3703 279.427 67.1719C280.921 66.3392 282.421 65.5031 283.994 64.9467C284.258 64.8533 284.391 64.8072 284.453 64.7858C284.488 64.7736 284.5 64.7694 284.5 64.7691C284.5 64.7689 284.497 64.7697 284.492 64.7711C284.409 64.7919 283.876 64.926 289.076 62.8088C296.336 59.8529 292.601 50.5412 290.452 48.4927C290.291 48.3402 290.037 48.1763 289.865 48.2183C289.71 48.2561 289.514 48.5604 289.498 48.7636C289.336 50.7992 286.694 53.958 280.417 53.4675C276.121 53.1319 276.028 53.1512 275.822 53.1938C275.727 53.2135 275.609 53.2381 275.043 53.2351C273.69 53.2281 269.004 53.7207 268.057 54.0231C267.713 54.133 267.263 54.2392 266.733 54.3641C264.209 54.9595 259.881 55.9806 256.606 59.8529C256.244 60.3504 255.871 60.8401 255.498 61.3297C254.657 62.4338 253.817 63.5379 253.093 64.7327ZM269.896 87.9983L269.896 87.9984C269.808 88.4854 269.72 88.9722 269.653 89.4609C269.642 89.538 269.606 89.6107 269.571 89.6834L269.557 89.7115L269.55 89.7271L269.541 89.7455L269.538 89.7514C269.533 89.7626 269.528 89.7739 269.524 89.7852C269.52 89.7668 269.515 89.7484 269.511 89.7301L269.501 89.6867C269.484 89.6164 269.467 89.546 269.455 89.4746C269.372 88.9761 269.294 88.4761 269.217 87.976L269.217 87.9759L269.217 87.9757L269.217 87.9751C269.042 86.8439 268.866 85.7126 268.627 84.599C268.34 83.2638 268.021 81.903 267.491 80.6781C266.878 79.2619 264.31 78.5936 263.047 79.3366C262.326 79.7602 261.981 80.7756 262.448 81.5133C262.89 82.2112 263.432 82.9246 264.077 83.3399C265.136 84.0219 265.48 85.1591 265.566 86.274C265.728 88.3703 263.779 91.318 261.886 91.8481C260.165 92.3301 258.41 92.6653 256.657 93.0002L256.656 93.0004C256.243 93.0794 255.829 93.1584 255.417 93.2393C255.374 93.2477 255.331 93.2556 255.29 93.2634C254.738 93.3663 254.299 93.4481 254.474 94.3607C254.948 96.838 255.103 99.3337 254.705 101.854C254.681 102.007 254.928 102.247 255.085 102.398C255.285 102.592 255.496 102.774 255.707 102.956C256.094 103.291 256.481 103.625 256.802 104.029C257.328 104.691 257.819 105.39 258.31 106.088C258.647 106.568 258.984 107.048 259.333 107.516C259.424 107.639 259.79 107.69 259.878 107.595C260.324 107.113 260.76 106.617 261.195 106.122L261.195 106.121L261.195 106.121L261.195 106.121L261.195 106.121L261.195 106.121L261.196 106.12L261.196 106.12L261.197 106.119L261.197 106.119L261.197 106.119L261.197 106.119L261.197 106.119L261.197 106.119L261.197 106.119C261.707 105.538 262.217 104.957 262.745 104.398C264.023 103.048 265.333 101.734 266.658 100.443C266.83 100.276 267.066 100.194 267.303 100.112C267.412 100.075 267.521 100.037 267.624 99.9907C267.581 100.102 267.539 100.215 267.497 100.327L267.497 100.328C267.382 100.635 267.267 100.942 267.132 101.237C267.108 101.288 267.04 101.309 266.968 101.331C266.906 101.35 266.842 101.369 266.801 101.41L266.764 101.445L266.736 101.473C266.48 101.719 266.292 101.9 266.859 102.205C267.459 102.527 268.015 102.955 268.57 103.382L268.57 103.383C268.802 103.561 269.035 103.74 269.27 103.911C272.895 106.545 276.801 107.781 281.125 106.981C283.57 106.528 285.249 105.059 285.994 102.343C286.708 99.7398 286.412 98.9826 284.209 97.9367L284.085 97.8782L283.983 97.8305C282.822 97.2849 281.668 96.7431 281.363 95.1356C281.358 95.1076 281.355 95.0765 281.355 95.043C281.347 94.4366 282.448 93.798 282.563 94.3934C282.799 95.6057 283.614 96.0245 284.473 96.4612C286.053 97.2645 286.247 97.1521 286.247 95.3203C286.247 92.9222 286.247 92.9222 288.11 92.175C289.189 91.7423 289.363 91.3191 288.872 90.1355C288.132 88.3482 287.648 86.5272 287.853 84.5062C288.106 82.0157 288.316 79.5171 288.455 77.0156C288.545 75.4081 288.629 73.7632 288.426 72.1829C288.295 71.171 287.975 70.1901 287.655 69.2096L287.655 69.2094C287.518 68.7876 287.38 68.3659 287.257 67.9417C286.97 66.9451 286.276 66.5447 285.37 66.9133C284.805 67.1435 284.235 67.3655 283.666 67.5876C282.081 68.2059 280.495 68.8244 278.983 69.6221C277.392 70.4618 275.781 71.5033 274.544 72.8756C273.432 74.1086 270.261 80.3199 270.261 84.9431C270.261 85.9726 270.079 86.9855 269.896 87.9983ZM141.595 278.509L141.598 278.508C143.057 278.143 144.517 277.779 145.974 277.399C146.184 277.344 146.38 277.222 146.575 277.1C146.666 277.043 146.757 276.987 146.849 276.937C146.771 276.885 146.692 276.836 146.614 276.786C146.431 276.67 146.249 276.555 146.081 276.416C145.896 276.263 145.739 276.062 145.586 275.866L145.578 275.855C145.142 275.297 144.7 274.746 144.258 274.194L144.257 274.193L144.257 274.192L144.256 274.192L144.255 274.191L144.255 274.19C143.175 272.843 142.096 271.495 141.109 270.065C140.134 268.651 139.359 267.047 138.594 265.466L138.575 265.426C138.198 264.647 137.771 264.318 137.046 264.604C133.964 265.818 130.773 266.482 127.583 267.145C125.919 267.491 124.254 267.837 122.605 268.261C119.903 268.957 106.298 271.598 105.114 271.694C104.537 271.741 103.961 271.807 103.385 271.873H103.384H103.384H103.384H103.384H103.384H103.383H103.383C102.262 272.002 101.141 272.13 100.021 272.116C97.1598 272.08 94.3548 272.428 91.5521 273.042C90.669 273.236 89.7732 273.358 88.8776 273.481L88.8774 273.481L88.8772 273.481L88.877 273.481L88.8768 273.481L88.8766 273.481L88.8764 273.481L88.8761 273.481L88.8758 273.481C87.8527 273.621 86.83 273.761 85.827 274.007C82.5966 274.797 81.5144 277.91 82.3466 280.953C82.5064 281.537 83.0773 282.196 83.5897 282.4C85.9266 283.334 88.3727 283.576 90.8453 283.598C92.119 283.609 93.3923 283.676 94.6656 283.743H94.6657H94.6659H94.6661C95.1517 283.768 95.6373 283.794 96.1228 283.816C97.9504 283.9 99.778 283.986 101.606 284.072C103.027 284.139 104.448 284.206 105.869 284.272C105.969 284.276 106.071 284.274 106.172 284.273C106.273 284.271 106.374 284.269 106.475 284.274C106.974 284.297 107.474 284.336 107.974 284.374C109.067 284.458 110.161 284.542 111.245 284.467C112.947 284.348 114.642 284.121 116.338 283.894C117.125 283.788 117.913 283.683 118.701 283.588C119.184 283.53 119.668 283.483 120.152 283.436L120.153 283.436C121.031 283.35 121.91 283.264 122.78 283.115L123.219 283.039L123.219 283.039C125.441 282.659 127.668 282.277 129.861 281.731C131.564 281.307 133.255 280.822 134.983 280.326L134.983 280.326L134.985 280.326L134.985 280.325L134.985 280.325L134.985 280.325L134.985 280.325L134.986 280.325C136.25 279.963 137.534 279.594 138.857 279.24C138.934 279.216 139.01 279.19 139.086 279.165C139.251 279.11 139.416 279.055 139.584 279.013C140.254 278.844 140.925 278.676 141.595 278.509ZM216.677 331.91C217.724 330.213 218.714 328.469 219.674 326.707C220.547 325.105 221.364 323.463 222.179 321.823C222.909 320.353 223.667 318.902 224.425 317.451L224.426 317.451L224.426 317.451C226.185 314.084 227.944 310.716 229.356 307.124C230.169 305.055 231.111 303.05 232.053 301.046L232.053 301.046L232.053 301.046L232.053 301.045C232.503 300.09 232.952 299.134 233.387 298.171C233.592 297.717 233.801 297.265 234.011 296.813C234.584 295.574 235.157 294.336 235.649 293.057C236.021 292.09 236.347 291.098 236.673 290.107C237.175 288.583 237.675 287.062 238.34 285.636C239.41 283.345 240.118 280.926 240.828 278.505L240.828 278.505L240.828 278.504L240.828 278.504L240.828 278.504C241.058 277.718 241.289 276.933 241.531 276.151C241.569 276.03 241.593 275.903 241.617 275.776C241.628 275.717 241.64 275.658 241.652 275.6C241.595 275.612 241.537 275.624 241.479 275.635C241.353 275.659 241.227 275.683 241.106 275.724C240.862 275.805 240.62 275.905 240.377 276.005L240.377 276.005C239.874 276.211 239.372 276.418 238.859 276.463C236.939 276.634 235.008 276.707 233.081 276.707C231.89 276.706 230.699 276.653 229.508 276.6H229.508H229.507H229.507H229.507H229.506H229.506H229.505C228.737 276.566 227.968 276.532 227.2 276.512C227.057 276.508 226.833 276.71 226.776 276.874L226.671 277.172L226.565 277.476L226.564 277.477C226.083 278.847 225.602 280.219 225.181 281.614C224.134 285.088 223.118 288.575 222.114 292.066C220.84 296.498 219.272 300.775 217.544 305.02C215.941 308.955 214.747 313.144 213.989 317.457C213.635 319.47 213.111 321.447 212.588 323.42L212.588 323.421L212.587 323.422L212.483 323.817L212.422 324.046C212.38 324.205 212.339 324.363 212.297 324.522C212.268 324.631 212.24 324.74 212.212 324.849C211.824 326.343 211.395 327.823 210.967 329.304C210.813 329.838 210.658 330.372 210.505 330.908C210.155 332.134 210.463 333.279 211.317 333.428C212.269 333.594 213.251 333.534 214.321 333.457C215.294 333.305 216.128 332.801 216.677 331.91ZM76.8273 289.751C77.8834 287.79 78.9714 286.015 81.1183 285.485C81.9154 285.288 81.9594 284.819 81.4312 284.066C81.3153 283.9 81.1931 283.736 81.0701 283.571L81.07 283.57C80.6286 282.976 80.1788 282.371 79.9883 281.683C79.7824 280.939 79.8226 280.099 79.862 279.273L79.8621 279.273C79.8722 279.06 79.8823 278.849 79.8882 278.64C79.9581 276.145 80.5822 274.016 82.7704 272.804C83.4196 272.445 83.8094 271.903 83.1582 270.843C81.6907 268.453 79.7459 266.761 77.6016 265.296C76.7611 264.721 75.9872 265.063 75.6531 266.065C75.5078 266.501 75.3609 266.937 75.214 267.372C74.7496 268.748 74.2851 270.124 73.8733 271.52C73.421 273.053 72.9908 274.594 72.5606 276.136C72.1065 277.762 71.6524 279.389 71.1725 281.006C70.7761 282.341 70.4272 283.692 70.0782 285.042L70.0781 285.043C69.4475 287.484 68.8165 289.926 67.9044 292.283C65.8041 297.71 64.1065 303.322 63.3032 309.219C63.2608 309.531 63.3199 310.066 63.4833 310.16C63.7318 310.303 64.1563 310.25 64.4282 310.101C64.8814 309.851 65.3574 309.538 65.6747 309.11C66.6707 307.768 67.5972 306.359 68.5506 304.747C69.3403 303.321 70.1329 301.897 70.9255 300.472L70.9261 300.471L70.9263 300.471C72.9089 296.908 74.8915 293.346 76.8273 289.751ZM225.498 335.977C225.307 335.922 225.115 335.869 224.923 335.817C223.164 335.333 221.416 334.854 220.397 332.801C219.916 331.833 219.495 331.906 219.01 332.97C218.589 333.892 218.069 334.701 217.238 335.183C216.796 335.439 216.328 335.645 215.858 335.833C213.529 336.764 211.264 336.882 209.222 334.998C208.226 334.079 207.902 334.163 207.125 335.307C205.869 337.156 205.225 339.312 204.584 341.459L204.584 341.459L204.529 341.643C203.838 343.955 204.213 344.438 206.39 344.438H245.433C245.515 344.438 245.6 344.447 245.685 344.455C245.88 344.474 246.076 344.493 246.231 344.412C246.431 344.307 246.699 343.814 246.666 343.772C246.523 343.595 246.383 343.408 246.242 343.22L246.242 343.219C245.812 342.643 245.377 342.06 244.824 341.743C243.723 341.112 242.488 340.739 241.279 340.393C236.819 339.118 232.346 337.9 227.675 336.66C227.448 336.589 227.222 336.515 226.995 336.442C226.497 336.282 225.999 336.121 225.498 335.977ZM301.851 251.282C301.897 251.475 302.102 251.62 302.306 251.765C302.401 251.832 302.495 251.899 302.574 251.97C302.585 251.952 302.597 251.933 302.61 251.915C302.626 251.893 302.642 251.87 302.659 251.848C302.689 251.807 302.721 251.766 302.753 251.726C302.892 251.549 303.031 251.372 303.039 251.189C303.05 250.943 303.065 250.696 303.079 250.448C303.136 249.485 303.193 248.51 303.025 247.595C302.695 245.803 302.177 244.041 301.588 242.333C301.441 241.907 301.617 241.704 301.781 241.512C301.901 241.374 302.015 241.242 301.997 241.036C302.102 241.112 302.216 241.183 302.329 241.253C302.587 241.413 302.846 241.573 303.016 241.813C303.166 242.024 303.235 242.306 303.305 242.59C303.346 242.759 303.388 242.93 303.447 243.087L303.539 243.333L303.607 243.513L303.696 243.749L303.696 243.75L303.696 243.75L303.696 243.751L303.696 243.751L303.696 243.752L303.697 243.752L303.697 243.753C304.099 244.828 304.501 245.904 304.967 246.943C305.05 247.128 305.298 247.218 305.547 247.308C305.661 247.349 305.776 247.39 305.874 247.441L305.885 247.416L305.897 247.387C305.905 247.369 305.913 247.35 305.922 247.332C305.953 247.263 305.988 247.194 306.023 247.126L306.023 247.126C306.14 246.896 306.256 246.666 306.254 246.437C306.245 245.402 306.173 244.363 306.064 243.333C306.052 243.222 306.041 243.11 306.031 242.998L306.016 242.843C305.947 242.1 305.877 241.344 305.624 240.687C304.851 238.684 304.031 236.689 303.046 234.815C302.423 233.628 301.576 232.519 300.635 231.64C299.8 230.86 298.838 230.248 297.88 229.638C297.623 229.475 297.368 229.312 297.114 229.147C295.569 228.135 294.002 227.163 292.432 226.202C292.422 226.195 292.411 226.189 292.401 226.182L292.381 226.169C292.197 226.051 291.98 225.911 291.787 226.387C291.424 227.284 291.038 228.169 290.653 229.054L290.653 229.055C290.051 230.437 289.449 231.818 288.933 233.24C288.923 233.27 288.911 233.301 288.899 233.333L288.898 233.335C288.695 233.878 288.338 234.837 289.433 235.367C290.609 235.936 291.765 236.754 292.692 237.746C295.42 240.663 296.651 244.563 297.873 248.436L297.873 248.437L297.969 248.74C298.204 249.485 298.373 250.257 298.541 251.03L298.541 251.03C298.621 251.397 298.701 251.764 298.789 252.128C298.82 252.26 298.858 252.39 298.895 252.52L298.895 252.521C298.913 252.582 298.93 252.642 298.947 252.703C299.004 252.655 299.07 252.613 299.137 252.57C299.281 252.477 299.425 252.384 299.475 252.247C299.99 250.851 300.145 249.446 299.761 247.927C299.456 246.721 299.346 245.444 299.238 244.186L299.238 244.185L299.228 244.071C299.214 243.917 299.404 243.741 299.594 243.565C299.682 243.484 299.769 243.402 299.837 243.323C299.883 243.391 299.936 243.457 299.989 243.523C300.104 243.665 300.219 243.808 300.26 243.974C300.346 244.327 300.427 244.682 300.509 245.042C300.658 245.699 300.812 246.376 301.015 247.098C301.086 247.463 301.154 247.829 301.223 248.194C301.416 249.229 301.609 250.263 301.851 251.282ZM289.409 227.948C289.554 227.552 289.728 227.173 289.901 226.794C290.322 225.876 290.743 224.956 290.766 223.798C290.788 222.739 290.617 222.17 289.86 221.649C289.058 221.096 288.145 220.763 287.431 221.399C285.81 222.842 284.314 224.519 283.447 226.666C282.901 228.018 282.507 229.451 282.114 230.882L282.114 230.884C281.979 231.374 281.844 231.863 281.704 232.35C281.624 232.627 281.662 232.972 281.714 233.271C282.027 235.057 283.208 235.94 284.522 236.689C285.215 237.084 285.728 236.888 286.039 236.115C286.252 235.586 286.462 235.057 286.673 234.522L286.674 234.521L286.677 234.514L286.677 234.513C287.118 233.4 287.567 232.267 288.067 231.084C288.206 230.763 288.349 230.444 288.492 230.125C288.814 229.407 289.136 228.689 289.409 227.948ZM61.0798 308.594C61.8035 306.647 62.4909 304.676 63.0707 302.669C63.4585 301.328 63.8004 299.969 64.1423 298.61L64.1424 298.61C64.452 297.38 64.7616 296.15 65.1052 294.932C65.6447 293.02 66.2105 291.118 66.7763 289.216L66.7765 289.215C67.3052 287.438 67.8339 285.66 68.3411 283.875C69.2909 280.532 70.2173 277.181 71.1436 273.829C71.5599 272.323 71.9762 270.817 72.3946 269.312C72.5048 268.915 72.6167 268.52 72.7285 268.124L72.7286 268.123C73.0256 267.072 73.3226 266.02 73.5889 264.959C73.6285 264.801 73.5481 264.605 73.4677 264.409C73.4305 264.318 73.3934 264.228 73.3681 264.141C73.2858 264.202 73.1906 264.257 73.0955 264.312C72.8897 264.43 72.6839 264.548 72.6087 264.734C71.8964 266.494 71.2003 268.266 70.5856 270.072C70.0197 271.734 69.5146 273.423 69.0098 275.112C68.9253 275.394 68.8408 275.677 68.756 275.959C68.662 276.272 68.5677 276.585 68.4734 276.898C67.9434 278.657 67.4132 280.417 66.9414 282.196C66.4529 284.037 65.99 285.888 65.527 287.738C65.188 289.093 64.849 290.448 64.5 291.799C64.3732 292.29 64.2477 292.781 64.1221 293.273L64.1186 293.286L64.1185 293.286L64.1185 293.287L64.1184 293.287L64.1183 293.287L64.118 293.288C63.5844 295.376 63.0506 297.464 62.4289 299.518C62.0418 300.797 61.6324 302.067 61.2215 303.343L61.2215 303.343C60.6477 305.124 60.0708 306.914 59.5471 308.75C60.3066 309.882 60.597 309.892 61.0798 308.594ZM232.631 348.67C233.092 348.635 233.551 348.596 234.011 348.558L234.015 348.558C235.027 348.473 236.04 348.389 237.054 348.333C238.394 348.259 239.734 348.193 241.074 348.127C242.844 348.04 244.615 347.952 246.385 347.847C246.525 347.839 246.657 347.682 246.79 347.525C246.852 347.452 246.913 347.379 246.976 347.321L246.956 347.307L246.935 347.292C246.92 347.281 246.906 347.271 246.892 347.26C246.867 347.241 246.842 347.223 246.817 347.204C246.696 347.111 246.574 347.018 246.439 346.966C246.335 346.926 246.215 346.936 246.096 346.946C246.073 346.948 246.05 346.95 246.027 346.951L245.996 346.953L245.97 346.954C245.959 346.954 245.948 346.955 245.938 346.955H205.714C205.651 346.955 205.582 346.946 205.512 346.936C205.359 346.917 205.206 346.897 205.121 346.973C204.833 347.236 204.574 347.572 204.399 347.937C204.362 348.013 204.711 348.476 204.928 348.53C205.525 348.68 206.147 348.774 206.759 348.775C215.35 348.789 223.94 348.785 232.631 348.67ZM295.455 350.025C293.832 350.764 292.211 351.483 290.594 352.201C287.516 353.567 284.456 354.926 281.437 356.392C279.375 357.393 277.309 357.547 275.161 357.475C274.979 357.469 274.797 357.423 274.615 357.377C274.42 357.327 274.226 357.277 274.03 357.277C273.873 357.278 273.716 357.376 273.558 357.474C273.488 357.518 273.417 357.562 273.346 357.597C273.383 357.662 273.417 357.732 273.45 357.801C273.525 357.955 273.599 358.108 273.709 358.219C274.019 358.532 274.342 358.853 274.708 359.07C277.491 360.715 279.1 365.208 278.117 368.58C277.634 370.235 277.049 371.992 276.072 373.28C275.276 374.328 273.889 375.02 272.652 375.382C270.698 375.955 268.659 375.973 266.688 375.166C264.966 374.461 263.729 373.156 262.817 371.392C260.601 367.106 261.511 363.388 263.868 359.928C264.177 359.473 264.676 359.187 265.179 358.899C265.46 358.738 265.742 358.576 265.994 358.383C266.172 358.247 266.31 358.044 266.448 357.841L266.449 357.84L266.483 357.791C266.509 357.752 266.536 357.713 266.564 357.675L266.592 357.636C266.608 357.614 266.625 357.592 266.641 357.57C266.53 357.539 266.42 357.502 266.309 357.465C266.055 357.381 265.801 357.297 265.545 357.284C265.368 357.276 265.19 357.327 265.012 357.379C264.846 357.427 264.679 357.475 264.513 357.475L258.212 357.48C244.023 357.489 229.833 357.499 215.643 357.474C212.214 357.468 208.784 357.41 205.354 357.352C203.337 357.318 201.319 357.284 199.301 357.261C197.81 357.243 196.319 357.248 194.828 357.253C194.149 357.255 193.47 357.257 192.791 357.257C192.645 357.257 192.499 357.256 192.353 357.255C191.947 357.252 191.542 357.25 191.138 357.267C191.053 357.271 190.971 357.336 190.889 357.401L190.888 357.401C190.85 357.431 190.813 357.461 190.775 357.484C190.811 357.514 190.847 357.543 190.884 357.573L190.938 357.617C190.955 357.632 190.973 357.646 190.99 357.66C191.01 357.675 191.029 357.691 191.049 357.706C191.059 357.713 191.069 357.721 191.08 357.729L191.1 357.744L191.121 357.758C191.461 357.998 191.818 358.218 192.175 358.438C192.942 358.91 193.708 359.383 194.31 360.046C198.426 364.581 197.098 373.546 190.94 375.342C185.957 376.795 181.553 374.924 180.074 368.244C179.162 364.126 181.601 359.215 185.288 357.928C185.448 357.872 185.586 357.737 185.723 357.601C185.754 357.571 185.784 357.541 185.814 357.512C185.848 357.48 185.883 357.449 185.918 357.42C185.903 357.41 185.888 357.401 185.873 357.391C185.854 357.378 185.835 357.364 185.816 357.35C185.782 357.325 185.748 357.299 185.714 357.273C185.569 357.159 185.423 357.046 185.278 357.045C180.416 357.024 175.86 355.428 171.391 353.52C165.389 350.956 159.554 347.967 154.15 344.022L154.047 343.947C153.049 343.22 152.019 342.469 151.667 340.948C151.007 338.099 152.283 335.903 154.638 335.181C157.147 334.412 159.552 335.221 161.921 336.079C166.028 337.566 170.133 339.064 174.238 340.563L174.241 340.564L174.244 340.565L174.247 340.566L174.25 340.567L174.253 340.568L174.256 340.569L174.259 340.57C176.54 341.403 178.821 342.235 181.102 343.066L181.403 343.175L181.405 343.176L181.407 343.177L181.408 343.177L181.41 343.178C182.646 343.628 183.883 344.079 185.13 344.49C185.589 344.641 186.083 344.717 186.561 344.719C188.625 344.728 190.688 344.729 192.752 344.73C194.803 344.731 196.854 344.732 198.905 344.741C199.209 344.742 199.732 344.838 199.777 345.012C199.872 345.387 199.871 345.793 199.87 346.2C199.87 346.358 199.869 346.517 199.875 346.673C199.844 346.662 199.814 346.646 199.783 346.631C199.718 346.597 199.652 346.563 199.589 346.569C199.356 346.593 199.124 346.625 198.892 346.658C198.547 346.705 198.201 346.753 197.855 346.774C196.652 346.844 195.449 346.907 194.246 346.97L194.237 346.971C192.632 347.055 191.027 347.139 189.423 347.24C186.579 347.42 183.897 346.515 181.239 345.619L181.215 345.611C179.153 344.915 177.117 344.122 175.081 343.33L175.081 343.329L175.08 343.329L175.08 343.329L175.079 343.329L175.079 343.329L175.079 343.329L175.078 343.328L175.077 343.328L175.076 343.327L175.075 343.327C173.925 342.879 172.774 342.431 171.619 342.001C170.172 341.461 168.72 340.935 167.269 340.408C165.596 339.802 163.924 339.195 162.257 338.568C161.837 338.411 161.427 338.2 161.019 337.989L161.019 337.989L161.018 337.989L161.018 337.989L161.017 337.988L161.017 337.988L161.016 337.988L161.016 337.988C160.363 337.652 159.714 337.317 159.031 337.203C157.777 336.993 156.434 337.107 155.183 337.385C154.694 337.494 154.146 338.372 153.992 339.012C153.787 339.866 153.927 340.707 154.812 341.343C158.92 344.291 163.251 346.737 167.699 348.955C171.739 350.97 175.911 352.541 180.172 353.822C180.855 354.027 181.595 354.044 182.31 354.059C183.942 354.094 185.575 354.117 187.207 354.14C189.965 354.178 192.723 354.217 195.48 354.312C198.531 354.417 201.58 354.584 204.629 354.751L204.633 354.751C206.052 354.829 207.47 354.907 208.888 354.978C210.126 355.041 211.363 355.101 212.601 355.162L212.658 355.164H212.659H212.659C214.483 355.253 216.307 355.342 218.13 355.438C218.524 355.458 218.917 355.495 219.311 355.532C220.003 355.597 220.695 355.662 221.385 355.637C221.989 355.616 222.592 355.521 223.194 355.427L223.195 355.427L223.195 355.426C223.716 355.345 224.237 355.263 224.76 355.228C225.114 355.205 225.471 355.264 225.829 355.323C226.119 355.371 226.409 355.42 226.699 355.424C227.047 355.429 227.396 355.435 227.744 355.442H227.745H227.746H227.746H227.746H227.747H227.747H227.747H227.747C229.355 355.471 230.963 355.5 232.566 355.414C233.951 355.339 235.333 355.216 236.716 355.093L236.718 355.093C238.05 354.974 239.382 354.856 240.715 354.781C241.111 354.758 241.512 354.869 241.913 354.981L241.913 354.981C242.267 355.079 242.621 355.178 242.975 355.186C245.402 355.242 247.831 355.236 250.259 355.198C252.626 355.161 254.994 355.091 257.359 354.964C257.827 354.938 258.298 354.846 258.768 354.755L258.769 354.755C259.464 354.619 260.156 354.484 260.83 354.567C263.535 354.898 266.249 354.982 268.96 355.066C270.822 355.124 272.683 355.181 274.539 355.319C277.89 355.568 280.858 354.664 283.797 353.308C287.775 351.472 291.721 349.528 295.592 347.425C298.012 346.11 300.322 344.525 302.623 342.947L303.044 342.658C304.511 341.652 305.63 340.234 306.09 338.284C306.322 337.301 305.837 336.549 304.964 336.527C302.256 336.46 299.783 337.521 297.324 338.59C293.749 340.144 290.188 341.742 286.639 343.371C285.205 344.03 283.781 344.72 282.358 345.409L282.357 345.409L282.355 345.41C281.289 345.926 280.223 346.443 279.152 346.946C278.779 347.122 278.348 347.221 277.943 347.223C274.557 347.238 271.17 347.237 267.784 347.235C266.853 347.235 265.923 347.235 264.992 347.235C264.061 347.235 263.13 347.235 262.198 347.235C259.678 347.236 257.157 347.237 254.637 347.232C253.774 347.23 252.912 347.198 252.05 347.161C251.995 347.159 251.906 347.004 251.9 346.914C251.892 346.789 251.897 346.661 251.901 346.534C251.907 346.355 251.913 346.177 251.885 346.005C251.768 345.276 252.045 345.163 252.641 345.168C256.891 345.2 261.14 345.214 265.39 345.176L265.72 345.173C266.033 345.171 266.347 345.168 266.66 345.165C270.257 345.136 273.855 345.106 277.445 344.899C278.584 344.834 279.731 344.274 280.821 343.743L280.933 343.688L281.099 343.607C287.319 340.595 293.603 337.768 300.078 335.525C301.251 335.119 302.499 334.966 303.737 334.815L303.742 334.814L303.94 334.79L304.064 334.774C304.14 334.765 304.216 334.755 304.291 334.746L304.436 334.727C305.279 334.617 306.174 334.548 306.991 334.744C308.29 335.055 308.829 336.462 308.432 337.933C307.71 340.605 306.267 342.639 304.168 344.082C302.67 345.113 301.167 346.134 299.655 347.162C298.263 348.107 296.864 349.058 295.455 350.025ZM274.762 362.381C272.397 359.475 269.664 358.941 266.406 361.066C264.523 362.295 263.697 365.184 263.855 367.014C264.025 368.985 264.898 370.62 266.231 371.901C267.83 373.436 269.701 373.439 271.626 372.971C275.905 371.933 277.188 365.66 274.762 362.381ZM182.477 365.57C182.477 365.778 182.474 365.986 182.47 366.194C182.463 366.644 182.456 367.094 182.483 367.541C182.699 371.233 186.494 374.1 189.841 373.014C192.223 372.242 193.596 370.635 194.083 367.815C194.829 363.489 192.45 360.373 189.163 359.836C185.916 359.306 183.245 361.329 182.477 365.57ZM208.595 378.663H216.012H253.354C254.548 378.663 255.743 378.663 256.937 378.663L258.619 378.663C266.956 378.665 275.294 378.666 283.631 378.634C284.175 378.631 284.774 378.277 285.223 377.93C285.343 377.836 285.087 377.094 284.838 376.776C284.67 376.56 284.213 376.482 283.885 376.482C257.217 376.473 230.548 376.471 203.88 376.469C193.442 376.468 183.004 376.468 172.566 376.466C172.179 376.466 171.792 376.437 171.405 376.408H171.404H171.404C171.266 376.397 171.128 376.387 170.99 376.377C170.349 376.335 169.519 377.298 169.784 377.851C170.164 378.644 170.943 378.664 171.706 378.664C183.965 378.663 196.224 378.663 208.541 378.663H208.55H208.559H208.568H208.577H208.586H208.595ZM141.74 379.228L136.7 379.228H136.692H136.684H136.675H136.667H136.659C129.232 379.228 121.859 379.228 114.486 379.224C114.438 379.224 114.389 379.225 114.34 379.227L114.307 379.228L114.251 379.23C113.754 379.249 113.258 379.267 113.059 378.536C112.829 377.689 113.145 377.073 113.982 376.963C114.14 376.942 114.302 376.947 114.464 376.953H114.465C114.539 376.956 114.613 376.958 114.688 376.958L122.487 376.958H122.831C135.796 376.958 148.76 376.958 161.725 376.955C161.768 376.955 161.811 376.955 161.854 376.955C162.532 376.95 163.174 376.946 163.145 377.981C163.122 378.838 162.672 379.228 161.625 379.228C156.608 379.228 151.591 379.228 146.53 379.228H146.514H146.497H146.48H146.463H141.74ZM317.868 379.231L323.086 379.231C324.219 379.231 325.348 379.232 326.473 379.232C330.794 379.233 335.064 379.233 339.334 379.222C339.777 379.221 340.227 379.121 340.659 379.008C340.778 378.976 340.897 378.741 340.926 378.583C341.144 377.361 340.793 376.963 339.525 376.963L316.011 376.963H292.497C292.423 376.963 292.349 376.959 292.274 376.955C292.111 376.947 291.948 376.939 291.792 376.969C290.929 377.134 290.62 377.81 290.964 378.629C291.227 379.257 291.714 379.245 292.204 379.233L292.261 379.231L292.314 379.23L292.357 379.229L292.407 379.229C300.872 379.232 309.338 379.231 317.861 379.231H317.868ZM281.199 76.2232C281.375 76.2029 282.202 76.3482 283.222 76.5273C284.616 76.7724 286.371 77.0806 287.312 77.1148C288.254 77.149 287.36 78.2885 287.204 78.296C285.125 78.3957 280.617 76.8454 281.199 76.2232ZM284.236 85.212C283.356 84.8355 283.777 81.7896 284.65 81.7896C285.512 81.7896 285.096 85.5794 284.236 85.212ZM271.549 364.497C272.311 366.448 272.259 367.246 271.352 368.306C270.733 369.031 269.611 369.154 268.907 368.574C268.156 367.956 267.808 366.493 268.171 365.478C268.808 363.694 270.208 363.257 271.549 364.497ZM189.993 364.647C188.81 363.411 187.632 363.48 186.184 365.081C185.657 366.459 185.916 367.919 187.87 368.308C188.922 368.517 189.545 368.166 190.127 367.455C190.731 366.715 190.559 365.238 189.993 364.647Z" fill="#00160A"/>
<path fill-rule="evenodd" clip-rule="evenodd" d="M258.639 116.266C256.88 115.683 256.463 112.671 254.688 112.15C252.932 111.636 251.246 113.983 249.495 113.447C248.305 113.082 247.749 111.599 247.09 110.422C246.449 109.277 245.098 108.244 244.134 108.983L244.054 109.048C242.716 110.239 240.709 109.487 239.362 108.309C238.014 107.132 236.872 105.544 235.254 104.938C236.103 103.992 237.575 104.679 238.397 105.655C239.22 106.632 239.889 107.918 241.031 108.309C242.782 108.907 244.754 107.072 246.406 107.957C247.434 108.508 247.852 109.868 248.467 110.948C249.082 112.028 250.42 112.933 251.294 112.111C253.414 110.115 257.202 111.38 258.018 114.356C258.255 115.219 259.302 116.485 258.639 116.266Z" fill="#E7EAEE"/>
<path fill-rule="evenodd" clip-rule="evenodd" d="M153.699 342.425C158.587 345.675 173.898 355.252 185.121 355.569L277.955 355.899C277.955 355.899 326.769 336.518 291.08 343.831C289.06 344.245 283.275 348.151 273.973 349.002C256.97 350.558 185.121 349.564 185.121 349.564C185.121 349.564 152.413 341.569 153.699 342.425Z" fill="#E7EAEE"/>
<path fill-rule="evenodd" clip-rule="evenodd" d="M73.9727 277.948C74.0869 277.804 74.2257 277.702 74.3117 277.742C75.2894 278.199 75.8533 277.802 76.1503 276.712C76.1996 276.531 76.4506 276.42 76.6084 276.276C76.7535 276.494 77.0208 276.713 77.0214 276.932C77.0235 277.659 77.3029 278 77.9147 278.216C78.1756 278.308 78.3299 278.78 78.5326 279.079C78.3284 279.132 78.0205 279.113 77.9418 279.254C77.7821 279.541 77.6984 279.91 77.6743 280.253C77.6538 280.545 77.7833 280.846 77.806 281.147C77.8358 281.542 77.7796 281.831 77.3674 281.434C76.5444 280.639 75.8302 280.937 75.1273 281.686C74.9569 281.868 74.6569 281.897 74.4166 281.996C74.4605 281.749 74.4737 281.489 74.5537 281.257C74.973 280.045 74.6833 279.005 73.9727 277.948Z" fill="#FFB61D"/>
<ellipse cx="275.627" cy="92.664" rx="3.54666" ry="4.00401" fill="#FFB61D"/>
<path fill-rule="evenodd" clip-rule="evenodd" d="M224.88 128.303L225.288 129.014L225.422 129.243C226.278 130.659 227.576 132.05 229.02 131.638C232.863 130.54 237.235 132.456 239.414 136.193C240.492 138.041 242.885 137.679 244.841 137.206L245.099 137.142C247.061 136.651 249.774 136.882 250.27 139.028L250.296 139.152C250.524 140.388 251.902 140.763 253.037 140.731L253.388 140.716C256.24 140.716 256.614 142.487 256.614 142.305C256.614 142.305 250.344 141.769 249.024 139.367L248.943 139.215C248.103 137.553 245.98 137.823 244.32 138.388L243.863 138.549L243.634 138.625C242.013 139.137 240.046 139.323 239.233 137.744C237.366 134.121 233.477 131.968 229.796 132.519C228.848 132.661 227.866 132.962 226.958 132.622C224.787 131.811 224.504 128.027 222.368 127.105C219.674 125.941 217.064 130.363 214.275 129.528C215.972 128.067 217.852 126.879 219.843 126.011C220.51 125.72 221.218 125.461 221.928 125.559C223.243 125.739 224.126 127.014 224.88 128.303ZM259.12 132.669C258.85 133.604 258.653 134.435 258.521 135.14C258.247 133.108 256.459 131.23 254.773 131.888L254.676 131.929C253.606 132.41 252.473 131.411 251.781 130.372L251.615 130.119L251.366 129.732C250.807 128.869 250.204 128.019 249.309 127.773C247.672 127.324 246.226 129.165 244.553 129.384C240.679 129.892 238.743 122.064 234.939 123.035C234.108 123.248 233.389 123.891 232.544 124.021C230.212 124.381 228.961 121.033 226.995 119.571C225.516 118.471 223.429 118.538 222.008 119.73C222.079 117.819 224.383 116.976 225.955 117.695C227.527 118.415 228.606 120.032 229.911 121.254C231.184 122.446 233.073 123.264 234.459 122.294L234.564 122.216C236.231 120.913 238.462 122.566 239.764 124.321L240.237 124.96C241.425 126.558 242.784 128.217 244.565 128.064C246.202 127.923 247.594 126.202 249.217 126.477C251.582 126.878 252.548 131.181 254.926 130.89C256.454 130.702 258.043 131.282 259.186 132.442L259.12 132.669ZM260.348 123.667C259.966 124.271 259.583 124.756 259.199 125.122L259.071 125.24L258.752 124.981C257.197 123.734 255.499 122.521 253.608 122.571C252.918 122.59 252.21 122.778 251.548 122.558C249.788 121.975 249.371 118.963 247.596 118.443C245.841 117.928 244.154 120.275 242.403 119.739C241.213 119.375 240.657 117.891 239.998 116.714C239.357 115.57 238.006 114.536 237.042 115.275L236.962 115.341C235.624 116.532 233.618 115.779 232.27 114.602C230.922 113.424 229.78 111.837 228.162 111.231C229.011 110.284 230.483 110.971 231.305 111.947C232.128 112.924 232.797 114.211 233.94 114.601C235.69 115.2 237.662 113.364 239.314 114.25C240.342 114.8 240.76 116.161 241.375 117.24C241.99 118.32 243.329 119.225 244.202 118.403C246.322 116.408 250.11 117.673 250.927 120.648C251.164 121.511 252.182 121.712 252.968 121.539C253.754 121.366 254.561 120.979 255.325 121.25C256.297 121.596 256.795 122.871 257.73 123.324C258.704 123.796 259.868 123.196 260.519 122.247L260.585 122.148C261.109 121.319 260.863 122.851 260.348 123.667Z" fill="#FFB61D"/>
<path fill-rule="evenodd" clip-rule="evenodd" d="M239.948 146.361L240.241 146.458C240.634 146.593 240.93 146.793 241.274 147.123L241.445 147.292L241.661 147.514C241.766 147.622 241.848 147.703 241.932 147.78C242.506 148.312 243.157 148.642 244.242 148.836C244.97 148.967 245.483 148.836 246.368 148.371L246.687 148.199C248.116 147.42 248.947 147.203 250.288 147.551C251.433 147.848 251.959 148.348 252.387 149.29L252.495 149.54C252.699 150.022 253.36 150.468 253.881 150.819C254.271 151.083 254.584 151.294 254.568 151.428C254.53 151.741 252.113 151.235 251.632 150.152L251.528 149.909C251.216 149.182 250.93 148.891 250.061 148.666C249.042 148.401 248.424 148.539 247.286 149.144L246.967 149.316C245.812 149.943 245.105 150.149 244.083 149.966C242.82 149.74 242.003 149.325 241.29 148.665C241.24 148.619 241.192 148.573 241.142 148.524L240.718 148.092C240.42 147.793 240.218 147.646 239.945 147.552L239.777 147.495C239.07 147.261 237.451 147.868 236.272 148.31L236.272 148.31C235.532 148.587 234.964 148.8 234.903 148.7C234.77 148.484 238.539 145.933 239.948 146.361ZM239.774 155.054L240.046 155.14C240.411 155.259 240.685 155.434 241.005 155.724L241.163 155.873L241.364 156.068C241.461 156.163 241.537 156.234 241.615 156.302C242.147 156.769 242.75 157.059 243.757 157.23C244.432 157.345 244.908 157.23 245.728 156.821L246.024 156.67C247.35 155.985 248.12 155.795 249.363 156.1C250.425 156.361 250.913 156.801 251.31 157.629L251.41 157.848C251.6 158.272 252.212 158.664 252.695 158.973C253.057 159.204 253.347 159.39 253.332 159.508C253.298 159.783 251.056 159.338 250.61 158.386L250.513 158.173C250.224 157.533 249.959 157.278 249.153 157.08C248.208 156.848 247.635 156.969 246.579 157.5L246.284 157.652C245.213 158.202 244.557 158.384 243.609 158.223C242.438 158.024 241.68 157.66 241.019 157.08C240.973 157.039 240.928 156.999 240.882 156.955L240.488 156.576C240.212 156.313 240.025 156.184 239.772 156.101L239.616 156.051C238.96 155.846 237.459 156.379 236.365 156.767C235.679 157.011 235.153 157.198 235.096 157.11C234.973 156.92 238.468 154.679 239.774 155.054ZM240.278 164.292L240.022 164.206C238.788 163.831 235.487 166.072 235.603 166.262C235.657 166.35 236.154 166.163 236.802 165.919L236.802 165.919L236.802 165.919C237.835 165.531 239.253 164.998 239.872 165.203L240.019 165.253C240.258 165.336 240.435 165.465 240.696 165.728L241.067 166.107C241.112 166.151 241.154 166.191 241.197 166.232C241.822 166.812 242.538 167.176 243.644 167.375C244.539 167.536 245.158 167.354 246.169 166.804L246.448 166.652C247.445 166.121 247.987 166 248.879 166.232C249.64 166.43 249.89 166.685 250.164 167.325L250.255 167.538C250.676 168.49 252.794 168.935 252.826 168.66C252.84 168.542 252.567 168.356 252.225 168.125C251.768 167.816 251.19 167.424 251.011 167L250.916 166.781C250.542 165.953 250.081 165.513 249.078 165.252C247.904 164.947 247.176 165.137 245.924 165.822L245.645 165.973C244.87 166.382 244.42 166.497 243.783 166.382C242.832 166.211 242.263 165.921 241.76 165.454C241.686 165.386 241.615 165.315 241.523 165.22L241.333 165.025L241.184 164.876C240.882 164.586 240.623 164.411 240.278 164.292ZM240.022 175.074L240.278 175.16C240.623 175.279 240.882 175.454 241.184 175.744L241.333 175.893L241.523 176.088C241.615 176.183 241.686 176.254 241.76 176.322C242.263 176.789 242.832 177.079 243.783 177.25C244.42 177.365 244.87 177.25 245.645 176.841L245.924 176.69C247.176 176.005 247.904 175.815 249.078 176.12C250.081 176.381 250.542 176.821 250.916 177.649L251.011 177.868C251.19 178.292 251.768 178.684 252.225 178.993C252.567 179.224 252.84 179.41 252.826 179.528C252.794 179.803 250.676 179.358 250.255 178.406L250.164 178.193C249.89 177.553 249.64 177.298 248.879 177.1C247.987 176.868 247.445 176.989 246.448 177.52L246.169 177.672C245.158 178.222 244.539 178.404 243.644 178.243C242.538 178.044 241.822 177.68 241.197 177.1C241.154 177.059 241.112 177.019 241.067 176.975L240.696 176.596C240.435 176.333 240.258 176.204 240.019 176.121L239.872 176.071C239.253 175.865 237.835 176.399 236.802 176.787L236.802 176.787C236.154 177.031 235.657 177.218 235.603 177.13C235.487 176.94 238.788 174.699 240.022 175.074ZM241.06 186.028L240.788 185.942C239.482 185.567 235.987 187.808 236.11 187.998C236.167 188.086 236.693 187.899 237.379 187.655C238.473 187.267 239.974 186.734 240.63 186.939L240.786 186.989C241.039 187.072 241.226 187.201 241.502 187.464L241.895 187.843C241.942 187.887 241.987 187.927 242.033 187.968C242.694 188.548 243.452 188.912 244.623 189.111C245.571 189.272 246.227 189.09 247.298 188.54L247.593 188.388C248.648 187.857 249.222 187.736 250.167 187.968C250.973 188.166 251.238 188.421 251.527 189.061L251.624 189.274C252.07 190.226 254.311 190.671 254.346 190.396C254.361 190.278 254.071 190.092 253.709 189.861C253.226 189.552 252.614 189.16 252.424 188.736L252.324 188.517C251.927 187.689 251.439 187.249 250.377 186.988C249.134 186.683 248.364 186.873 247.038 187.558L246.742 187.709C245.921 188.118 245.446 188.233 244.771 188.118C243.764 187.947 243.161 187.657 242.629 187.19C242.551 187.122 242.475 187.051 242.377 186.956L242.177 186.761L242.019 186.612C241.699 186.322 241.425 186.147 241.06 186.028ZM243.55 195.999L243.831 196.03C244.208 196.075 244.505 196.194 244.865 196.417L245.043 196.532L245.271 196.686C245.382 196.76 245.467 196.815 245.554 196.867C246.151 197.222 246.789 197.389 247.807 197.361C248.489 197.341 248.94 197.135 249.685 196.571L249.953 196.365C251.154 195.431 251.883 195.092 253.155 195.149C254.24 195.198 254.789 195.535 255.306 196.273L255.439 196.469C255.691 196.849 256.354 197.115 256.878 197.325C257.27 197.482 257.584 197.607 257.587 197.726C257.595 198.004 255.319 198.006 254.734 197.156L254.606 196.964C254.222 196.392 253.922 196.192 253.098 196.155C252.131 196.111 251.586 196.344 250.628 197.073L250.36 197.281C249.39 198.033 248.772 198.34 247.814 198.367C246.631 198.401 245.828 198.191 245.087 197.749L244.933 197.654L244.487 197.357C244.175 197.152 243.971 197.062 243.709 197.03L243.548 197.011C242.87 196.937 241.474 197.757 240.456 198.354L240.456 198.354L240.456 198.354L240.456 198.354C239.818 198.729 239.329 199.016 239.259 198.94C239.109 198.778 242.206 195.885 243.55 195.999ZM249.941 203.405L249.716 203.43C248.642 203.571 246.505 206.238 246.642 206.334C246.705 206.378 247.061 206.083 247.525 205.698L247.525 205.697L247.525 205.697C248.265 205.083 249.28 204.241 249.823 204.181L249.952 204.168C250.162 204.148 250.334 204.181 250.602 204.28L250.986 204.425L251.118 204.47C251.751 204.673 252.407 204.694 253.339 204.47C254.093 204.289 254.548 203.957 255.234 203.236L255.423 203.037C256.101 202.334 256.507 202.07 257.276 201.94C257.931 201.829 258.189 201.927 258.554 202.287L258.675 202.408C259.229 202.94 261.027 202.556 260.991 202.351C260.975 202.264 260.714 202.223 260.387 202.172C259.951 202.105 259.399 202.019 259.159 201.779L259.033 201.656C258.545 201.196 258.076 201.038 257.212 201.184C256.202 201.355 255.662 201.73 254.814 202.624L254.624 202.823C254.096 203.366 253.762 203.595 253.225 203.724C252.424 203.917 251.902 203.9 251.393 203.737C251.318 203.713 251.245 203.686 251.149 203.65L250.953 203.575L250.799 203.519C250.492 203.414 250.244 203.376 249.941 203.405ZM255.29 208.578L255.515 208.553C255.818 208.524 256.066 208.562 256.374 208.667L256.527 208.723L256.723 208.798C256.819 208.834 256.892 208.861 256.967 208.885C257.476 209.048 257.998 209.065 258.799 208.872C259.336 208.743 259.67 208.514 260.198 207.971L260.388 207.772C261.236 206.878 261.776 206.503 262.786 206.332C263.65 206.186 264.119 206.344 264.607 206.804L264.733 206.927C264.973 207.167 265.525 207.253 265.961 207.32C266.288 207.371 266.549 207.411 266.565 207.499C266.601 207.704 264.803 208.088 264.249 207.556L264.128 207.435C263.763 207.075 263.505 206.977 262.85 207.088C262.081 207.218 261.675 207.482 260.997 208.185L260.808 208.384C260.122 209.105 259.667 209.437 258.913 209.618C257.981 209.842 257.325 209.821 256.692 209.618L256.56 209.573L256.176 209.428C255.908 209.329 255.736 209.296 255.526 209.316L255.397 209.329C254.854 209.388 253.839 210.231 253.099 210.845C252.635 211.231 252.279 211.526 252.216 211.482C252.08 211.386 254.216 208.719 255.29 208.578ZM262.648 214.119L262.471 214.174C261.63 214.459 260.255 216.931 260.376 216.985C260.432 217.01 260.679 216.718 261.002 216.336L261.002 216.336C261.517 215.727 262.223 214.892 262.65 214.758L262.751 214.727C262.917 214.677 263.058 214.676 263.285 214.713L263.61 214.768L263.722 214.783C264.253 214.844 264.78 214.757 265.497 214.429C266.077 214.164 266.399 213.827 266.857 213.141L266.984 212.952C267.438 212.283 267.73 212.007 268.328 211.781C268.838 211.588 269.057 211.624 269.393 211.855L269.505 211.931C270.014 212.269 271.404 211.676 271.349 211.518C271.326 211.45 271.112 211.46 270.844 211.471C270.487 211.486 270.035 211.506 269.813 211.352L269.697 211.274C269.25 210.984 268.855 210.932 268.183 211.186C267.397 211.484 267.012 211.869 266.445 212.719L266.319 212.908C265.964 213.427 265.726 213.663 265.313 213.851C264.697 214.133 264.277 214.203 263.849 214.153C263.787 214.146 263.725 214.136 263.644 214.122L263.478 214.093L263.348 214.073C263.089 214.039 262.886 214.047 262.648 214.119ZM268.103 218.796L268.279 218.74C268.518 218.669 268.721 218.66 268.98 218.695L269.109 218.715L269.276 218.744C269.357 218.758 269.419 218.767 269.481 218.774C269.909 218.824 270.328 218.754 270.944 218.473C271.358 218.284 271.596 218.048 271.951 217.529L272.077 217.341C272.643 216.49 273.028 216.105 273.815 215.808C274.487 215.553 274.881 215.605 275.329 215.895L275.445 215.974C275.667 216.127 276.119 216.108 276.476 216.092C276.744 216.081 276.958 216.072 276.981 216.139C277.036 216.297 275.646 216.89 275.137 216.553L275.025 216.476C274.688 216.246 274.47 216.209 273.96 216.402C273.362 216.628 273.07 216.904 272.616 217.574L272.489 217.762C272.031 218.448 271.709 218.786 271.129 219.051C270.412 219.378 269.884 219.466 269.353 219.404L269.242 219.389L268.917 219.334C268.69 219.298 268.549 219.299 268.383 219.349L268.282 219.38C267.855 219.513 267.149 220.348 266.634 220.957C266.311 221.339 266.064 221.632 266.008 221.606C265.887 221.552 267.261 219.08 268.103 218.796ZM274.866 223.316L274.689 223.372C273.848 223.656 272.473 226.128 272.594 226.183C272.65 226.208 272.897 225.915 273.22 225.533C273.735 224.925 274.441 224.089 274.868 223.956L274.969 223.925C275.135 223.875 275.276 223.874 275.503 223.91L275.828 223.965L275.94 223.98C276.471 224.042 276.998 223.954 277.715 223.627C278.295 223.362 278.617 223.024 279.075 222.339L279.202 222.15C279.656 221.48 279.948 221.204 280.546 220.978C281.056 220.785 281.275 220.822 281.611 221.052L281.723 221.129C282.232 221.466 283.622 220.873 283.567 220.715C283.544 220.648 283.33 220.657 283.062 220.668C282.705 220.684 282.253 220.703 282.031 220.55L281.915 220.471C281.468 220.181 281.073 220.129 280.401 220.384C279.615 220.681 279.23 221.066 278.663 221.917L278.537 222.105C278.182 222.624 277.944 222.86 277.531 223.049C276.915 223.33 276.495 223.4 276.067 223.35C276.005 223.343 275.943 223.334 275.862 223.32L275.696 223.291L275.566 223.271C275.307 223.236 275.104 223.245 274.866 223.316Z" fill="#FFB61D"/>
</svg>
