<svg width="460" height="431" viewBox="0 0 460 431" fill="none" xmlns="http://www.w3.org/2000/svg">
<path fill-rule="evenodd" clip-rule="evenodd" d="M202.583 77.3839C192.85 84.3374 184.699 92.9746 178.547 102.807C168.468 100.922 157.607 100.521 146.611 101.997C149.371 90.7621 155.026 80.1883 163.195 71.3556C165.096 69.3098 167.912 68.2122 170.801 68.4076C182.043 69.1547 192.899 72.2751 202.583 77.3839ZM229.999 130.328C239.737 120.246 251.131 112.87 263.248 108.054C256.035 97.9225 246.063 89.5956 234.115 83.9983C231.527 82.7858 228.472 82.7858 225.884 83.9983C213.936 89.5956 203.963 97.9225 196.751 108.054C208.869 112.87 220.262 120.247 229.999 130.328ZM288.665 215.499C297.067 211.574 304.777 206.391 311.499 200.092C331.782 181.083 338.885 152.964 329.801 127.437C328.887 124.869 326.728 122.846 323.987 121.99C296.767 113.49 266.75 120.116 246.443 139.138C239.721 145.436 234.182 152.659 229.999 160.538C225.816 152.659 220.278 145.436 213.556 139.138C193.267 120.133 163.256 113.479 136.012 121.99C133.264 122.846 131.112 124.869 130.198 127.437C121.127 152.941 128.198 181.065 148.5 200.092C155.216 206.385 162.931 211.574 171.334 215.499C162.931 219.424 155.222 224.608 148.5 230.906C128.217 249.916 121.114 278.035 130.198 303.561C131.112 306.13 133.271 308.153 136.012 309.009C163.232 317.508 193.249 310.882 213.556 291.861C220.278 285.563 225.816 278.339 229.999 270.46C234.182 278.339 239.721 285.563 246.443 291.861C266.842 310.974 296.89 317.474 323.987 309.009C326.734 308.153 328.887 306.13 329.801 303.561C338.872 278.057 331.801 249.933 311.499 230.906C304.783 224.614 297.067 219.424 288.665 215.499ZM367.03 219.355C361.523 229.676 353.543 238.417 343.859 245.02C338.655 234.146 331.039 224.096 320.902 215.499C330.627 207.253 338.43 197.324 343.853 185.973C353.537 192.576 361.523 201.322 367.03 211.643C368.325 214.068 368.325 216.93 367.03 219.355ZM116.146 245.026C121.569 233.674 129.372 223.746 139.097 215.499C128.96 206.903 121.344 196.851 116.14 185.979C106.456 192.582 98.4762 201.322 92.9685 211.643C91.6744 214.068 91.6744 216.93 92.9685 219.355C98.4762 229.676 106.462 238.423 116.146 245.026ZM263.371 322.991C256.201 332.772 246.437 340.817 234.79 346.276C232.264 347.454 229.232 347.52 226.565 346.276C214.752 340.742 204.871 332.542 197.677 322.565C209.868 317.578 220.816 310.178 229.999 300.671C239.753 310.768 251.183 318.159 263.371 322.991ZM383.842 281.465C374.255 289.252 362.743 294.596 350.526 297.131C352.813 285.545 352.605 273.627 349.869 262.042C359.45 256.329 367.877 249.008 374.715 240.405C381.763 250.473 386.062 262.168 386.988 274.339C387.197 277.046 386.025 279.684 383.842 281.465ZM296.804 359.643C304.979 350.81 310.628 340.231 313.388 328.996C302.903 330.417 292.031 330.142 281.648 328.22C275.368 338.035 267.082 346.627 257.213 353.511C266.947 358.683 277.882 361.838 289.198 362.591C289.419 362.608 289.634 362.614 289.855 362.614C292.51 362.614 295.05 361.539 296.804 359.643ZM170.801 362.591C182.423 361.815 193.635 358.511 203.559 353.097C193.868 346.236 185.735 337.714 179.559 328.002C168.868 330.103 157.595 330.49 146.611 329.002C149.371 340.236 155.026 350.81 163.195 359.643C164.949 361.539 167.489 362.614 170.144 362.614C170.365 362.614 170.58 362.608 170.801 362.591ZM313.388 101.997C302.392 100.521 291.532 100.922 281.452 102.807C275.3 92.9746 267.149 84.3374 257.415 77.3839C267.1 72.2751 277.956 69.1547 289.198 68.4076C292.087 68.2122 294.902 69.3098 296.804 71.3556C304.973 80.1883 310.628 90.7621 313.388 101.997ZM76.157 282.54C85.8047 290.378 97.3968 295.74 109.706 298.251C107.173 286.315 107.308 273.995 110.136 262.042C100.739 256.444 92.4533 249.301 85.6882 240.911C78.4018 251.106 73.949 263.013 73.0106 275.414C72.8021 278.121 73.9735 280.758 76.157 282.54ZM386.988 156.659C386.062 168.831 381.763 180.525 374.715 190.593C367.877 181.985 359.45 174.669 349.863 168.957C352.599 157.377 352.813 145.453 350.526 133.868C362.743 136.402 374.255 141.747 383.842 149.533C386.025 151.315 387.197 153.952 386.988 156.659ZM85.2834 190.593C92.1221 181.99 100.549 174.669 110.13 168.957C107.394 157.372 107.192 145.447 109.473 133.868C97.2557 136.402 85.7434 141.747 76.157 149.533C73.9735 151.315 72.8021 153.952 73.0106 156.659C73.9367 168.831 78.2362 180.525 85.2834 190.593ZM202.399 215.499C202.399 201.242 214.783 189.639 229.999 189.639C245.216 189.639 257.599 201.242 257.599 215.499C257.599 229.757 245.216 241.359 229.999 241.359C214.783 241.359 202.399 229.757 202.399 215.499ZM220.799 215.499C220.799 220.258 224.921 224.119 229.999 224.119C235.078 224.119 239.199 220.258 239.199 215.499C239.199 210.741 235.078 206.879 229.999 206.879C224.921 206.879 220.799 210.741 220.799 215.499Z" fill="white"/>
<path d="M158.426 345.763C147.503 345.845 138.917 346.3 131.647 347.26C114.169 349.568 103.777 354.99 99.1739 365.217C96.8241 370.438 97.9557 374.95 102.271 378.464C105.975 381.481 112.003 383.762 120.206 385.432L120.664 385.525C134.699 388.316 154.626 389.326 179.895 388.971L181.449 388.947C193.32 388.756 205.492 388.299 220.143 387.561L234.73 386.786C239.855 386.509 245.134 386.225 247.014 386.131L249.556 386.008C254.956 385.756 258.436 385.663 260.584 385.725L262.993 385.811C297.816 387.006 324.992 385.374 342.475 381.528C350.451 379.773 356.157 377.598 359.348 375.122C362.803 372.441 363.4 369.214 360.838 366.364C352.845 357.473 339.727 352.45 318.533 349.772L317.438 349.637C299.829 347.496 277.928 346.838 236.307 346.812L230.318 346.807C222.22 346.785 214.466 346.681 204.174 346.475L178.856 345.935C171.279 345.787 167.017 345.741 162.268 345.748L158.426 345.763Z" fill="white"/>
<ellipse cx="230.193" cy="374.821" rx="130.687" ry="12.7812" fill="#E7EAEE"/>
<path fill-rule="evenodd" clip-rule="evenodd" d="M256.998 284.071C259.37 284.463 260.995 282.292 264.668 275.05L264.939 274.525L265.206 274.025C269.585 265.957 274.648 263.386 280.397 266.31L282.704 259.931L281.929 259.597L281.184 259.282C269.25 254.287 262.804 253.983 261.847 258.371L261.753 258.851L261.674 259.237C260.972 262.583 259.26 269.027 258.021 274.512L257.812 275.448C256.778 280.149 256.173 283.935 256.998 284.071Z" fill="white"/>
<path fill-rule="evenodd" clip-rule="evenodd" d="M231.584 219.375C231.584 219.375 249.03 221.541 257.854 221.166C266.678 220.791 279.583 217.334 279.583 217.334L279.276 227.773C279.276 227.773 320.44 226.995 314.224 258.59C310.13 279.4 278.802 270.843 278.802 270.843L284.793 258.59C284.793 258.59 303.584 259.864 296.742 254.507C295.472 253.513 287.357 252.142 276.679 252.41C267.507 252.64 259.539 250.065 258.71 247.753C255.602 239.087 260.115 234.528 260.115 234.528C260.115 234.528 255.75 236.519 256.578 241.359C257.406 246.2 251.305 345.308 251.305 345.308C251.305 345.308 245.786 346.225 243.01 346.225C240.234 346.225 236.413 345.308 236.413 345.308L231.584 219.375Z" fill="white"/>
<path fill-rule="evenodd" clip-rule="evenodd" d="M231.584 219.375C231.584 219.375 240.787 346.126 239.505 345.927C238.539 345.777 236.413 345.308 236.413 345.308L231.584 219.375Z" fill="#E7EAEE"/>
<path fill-rule="evenodd" clip-rule="evenodd" d="M239.162 347.261C239.767 352.248 238.636 354.247 238.786 354.247C241.252 354.247 242.725 354.201 246.68 353.913C246.68 353.913 246.459 351.764 246.459 350.754C246.459 349.547 246.68 347.261 246.68 347.261H239.162Z" fill="white"/>
<path d="M233.066 104.041C233.066 104.041 223.866 107.278 223.866 101.185C223.866 95.0917 230.964 98.1291 230.964 98.1291" fill="white"/>
<path d="M273.546 104.677C275.477 105.079 281.52 108.61 281.52 100.062C281.52 95.9824 274.62 98.929 274.62 98.929" fill="white"/>
<path d="M251.591 69.0267C243.99 69.7175 228.061 76.4894 230.961 95.8369C233.21 110.835 245.182 127.001 252.539 127.001C259.763 127.001 271.924 113.392 273.69 99.993C277.296 72.629 259.191 68.3358 251.591 69.0267Z" fill="white"/>
<path fill-rule="evenodd" clip-rule="evenodd" d="M251.872 82.8717C252.277 81.9933 253.582 81.9347 254.074 82.773C256.582 87.0485 259.391 90.0279 262.483 91.7335C265.604 93.4557 269.287 93.6256 273.044 92.0472C273.662 91.7875 274.388 92.0465 274.665 92.6257C274.943 93.2049 274.666 93.885 274.048 94.1447C269.57 96.0258 265.049 95.8171 261.238 93.7142C258.267 92.0753 255.592 89.4708 253.2 85.9144L253.112 85.7822L253.034 85.9259C251.102 89.3618 248.61 92.1059 245.559 94.1445L245.252 94.346C241.411 96.8231 236.902 97.9244 231.77 97.653C231.094 97.6173 230.577 97.0745 230.615 96.4408C230.653 95.807 231.232 95.3222 231.909 95.358C236.512 95.6014 240.481 94.6318 243.861 92.4524C247.273 90.2521 249.943 87.0671 251.872 82.8717Z" fill="#E7EAEE"/>
<path fill-rule="evenodd" clip-rule="evenodd" d="M291.105 192.958C290.365 206.002 285.164 211.536 278.664 212.331C277.801 212.436 279.009 217.085 278.258 217.694C273.973 221.166 266.421 221.316 254.579 221.417C243.859 221.508 236.946 220.697 232.141 218.852C231.774 218.711 232.105 212.86 231.725 212.829C225.706 212.331 218.772 207.326 217.088 193.715C211.384 147.631 228.54 138.724 244.868 131.382C245.754 130.984 246.235 130.29 247.115 129.895C248.972 129.063 248.488 130.978 252.707 130.978C256.926 130.978 256.926 129.477 258.826 130.328C259.535 130.645 259.652 132.628 260.358 132.977C277.068 141.238 293.15 156.91 291.105 192.958Z" fill="white"/>
<path fill-rule="evenodd" clip-rule="evenodd" d="M260.358 132.977C282.424 140.459 292.672 160.452 291.105 192.958C289.225 231.932 241.983 197.042 257.732 163.467C261.484 155.468 266.414 189.336 266.468 189.479C267.724 192.809 271.562 195.392 275.442 196.773C275.442 196.773 277.179 173.299 274.16 162.231C271.32 151.82 260.358 132.977 260.358 132.977Z" fill="white"/>
<path fill-rule="evenodd" clip-rule="evenodd" d="M246.15 125.277C246.15 125.277 246.769 127.019 246.554 128.095C246.339 129.172 245.022 130.913 245.022 130.913C245.022 130.913 208.392 141.382 216.875 193.63C226.311 231.521 259.392 206.879 253.652 176.666C253.414 154.231 247.993 161.827 243.921 186.549C242.925 192.597 230.683 194.314 230.683 194.314" fill="white"/>
<ellipse cx="263.427" cy="110.623" rx="3.37332" ry="2.586" fill="#FFB61D"/>
<ellipse cx="243.186" cy="110.623" rx="3.37334" ry="2.586" fill="#FFB61D"/>
<path d="M246.589 114.111C246.735 113.491 249.755 113.978 250.604 115.036L250.867 115.364C251.658 116.347 252.141 116.657 253.162 116.657C254.466 116.657 254.911 116.438 255.652 115.528L255.85 115.278C256.712 114.173 259.75 113.371 259.98 113.968C260.211 114.565 259.881 115.223 259.244 115.439C258.767 115.601 258.495 115.814 258.029 116.385L257.81 116.661C256.537 118.295 255.478 118.956 253.162 118.956C251.281 118.956 250.191 118.296 249.029 116.896L248.644 116.418L248.47 116.206C248.087 115.751 247.853 115.567 247.581 115.495L247.522 115.481C246.861 115.344 246.443 114.731 246.589 114.111Z" fill="#00160A"/>
<path d="M248.972 97.0222C247.511 96.6033 246.178 96.4833 245.408 96.5709C244.578 96.6653 243.53 97.0659 242.563 97.4355C241.789 97.7314 241.066 98.0075 240.55 98.0905C240.037 98.1729 239.268 98.1461 238.518 98.12C237.571 98.087 236.655 98.055 236.328 98.2462C235.742 98.5886 236.616 99.1418 237.128 99.2052C238.895 99.4243 240.182 99.4764 241.035 99.3487C241.791 99.2353 242.474 99.0391 243.402 98.7055L244.371 98.3603C245.014 98.1359 245.18 98.0997 245.408 98.0949L245.567 98.0953C246.216 98.1104 247.172 98.2925 248.412 98.6478C248.904 98.7889 249.429 98.5394 249.583 98.0905C249.738 97.6416 249.464 97.1633 248.972 97.0222Z" fill="#00160A"/>
<path d="M252.588 109.356C253.28 107.462 253.681 98.1318 252.919 98.1244C252.157 98.117 251.533 98.6898 251.525 99.4039C251.514 100.408 251.521 101.371 251.527 102.274C251.546 104.984 251.561 107.152 251.078 108.26L250.974 108.489C250.35 109.942 250.175 111.178 251.844 111.467C252.841 111.639 257.317 109.261 257.059 108.589C256.802 107.917 256.011 107.568 255.294 107.809L255.106 107.872C254.68 108.012 254.123 108.449 253.622 108.842C253.176 109.191 252.775 109.506 252.548 109.548L252.512 109.554L252.588 109.356Z" fill="#00160A"/>
<path d="M258.254 97.0222C259.716 96.6033 261.048 96.4833 261.819 96.5709C262.648 96.6653 263.696 97.0659 264.664 97.4355C265.438 97.7314 266.16 98.0075 266.676 98.0905C267.189 98.1729 267.958 98.1461 268.708 98.12C269.656 98.087 270.572 98.055 270.899 98.2462C271.484 98.5886 270.61 99.1418 270.099 99.2052C268.331 99.4243 267.044 99.4764 266.192 99.3487C265.435 99.2353 264.752 99.0391 263.824 98.7055L262.856 98.3603C262.212 98.1359 262.046 98.0997 261.819 98.0949L261.659 98.0953C261.011 98.1104 260.054 98.2925 258.815 98.6478C258.322 98.7889 257.798 98.5394 257.643 98.0905C257.488 97.6416 257.762 97.1633 258.254 97.0222Z" fill="#00160A"/>
<path d="M266.151 103.519C266.536 102.903 266.315 102.111 265.658 101.75C265.426 101.622 265.242 101.864 264.963 102.231C264.451 102.903 263.62 103.996 261.587 103.996C259.538 103.996 258.697 102.893 258.186 102.222C257.913 101.865 257.734 101.63 257.516 101.75C256.858 102.111 256.637 102.903 257.023 103.519C257.995 105.074 259.578 105.882 261.587 105.882C263.596 105.882 265.178 105.074 266.151 103.519Z" fill="#00160A"/>
<path d="M248.534 101.778C249.174 102.165 249.359 102.965 248.947 103.566C247.89 105.102 246.202 105.882 244.055 105.882C241.892 105.882 240.221 105.088 239.237 103.521C238.85 102.905 238.702 102.075 239.727 101.751C240.175 101.609 240.629 102.019 241.19 102.525C241.912 103.177 242.813 103.989 244.106 103.989C246.554 103.989 247.421 102.84 247.916 102.184C248.165 101.854 248.319 101.649 248.534 101.778Z" fill="#00160A"/>
<path fill-rule="evenodd" clip-rule="evenodd" d="M252.905 42.7957C245.173 44.088 239.25 49.5773 238.093 57.6868C238.038 58.0723 238.002 58.4483 237.984 58.8148C236.644 59.2086 232.675 60.4093 232.784 60.7842C232.885 61.1332 236.406 60.3488 237.993 59.9764C238.222 63.5319 240.366 66.0808 243.979 67.6404C244.898 68.0373 245.886 68.3632 246.936 68.6259C243.203 69.7276 239.387 71.7431 236.373 74.5123C230.803 79.6291 228.221 86.8461 229.595 96.0167C229.608 96.0995 229.621 96.1822 229.634 96.2651C225.19 94.9826 222.487 96.6845 222.487 101.185C222.487 105.7 229.533 108.237 232.513 106.401C235.517 113.855 240.195 120.745 244.898 124.734C244.755 125.022 244.725 125.361 244.841 125.686C245.186 126.657 245.291 127.39 245.198 127.857L245.178 127.942C245.072 128.354 244.766 128.941 244.254 129.674L244.156 129.812L243.869 129.897C219.244 137.306 209.821 158.779 215.511 193.824L215.531 193.924L215.636 194.337C218.381 204.994 223.578 211.211 230.051 212.822C230.051 212.852 230.051 212.881 230.051 212.91C231.183 248.805 232.172 277.405 233.018 298.712L233.326 306.278L233.632 313.45C234.065 323.306 234.454 330.885 234.799 336.187L235.02 339.441C235.398 344.765 235.619 345.937 236.43 346.475L236.509 346.524L236.57 346.558C236.744 346.653 236.959 346.738 237.216 346.813C236.914 346.812 236.611 346.812 236.307 346.812L230.318 346.807C222.22 346.785 214.466 346.681 204.174 346.475L178.856 345.935C171.279 345.787 167.017 345.741 162.268 345.747L158.426 345.763C147.503 345.844 138.917 346.3 131.647 347.26C114.169 349.568 103.777 354.99 99.1739 365.217C96.8241 370.438 97.9557 374.95 102.271 378.464C105.975 381.481 112.003 383.762 120.206 385.432L120.664 385.525C134.699 388.316 154.626 389.326 179.895 388.971L181.449 388.947C193.32 388.756 205.492 388.299 220.143 387.561L234.73 386.786C239.855 386.509 245.134 386.225 247.014 386.131L249.556 386.008C254.956 385.756 258.436 385.663 260.584 385.725L262.993 385.811C297.816 387.006 324.992 385.374 342.475 381.528C350.451 379.773 356.157 377.598 359.348 375.122C362.803 372.441 363.4 369.214 360.838 366.364C352.845 357.473 339.727 352.45 318.533 349.772L317.438 349.637C302.255 347.791 283.88 347.047 252.423 346.861L252.596 346.85C253.378 346.801 253.994 346.206 254.024 345.472L256.3 285.659C256.364 285.66 256.43 285.658 256.499 285.654C259.472 285.462 261.485 283.74 265.154 277.264L265.59 276.485L266.089 275.58C266.984 274.032 269.359 271.629 271.395 269.569L271.396 269.568C272.732 268.216 273.922 267.012 274.451 266.295C275.548 266.496 277.142 266.654 279.232 266.769L279.493 266.782L277.835 270.556L277.803 270.637C277.596 271.228 277.931 271.875 278.57 272.081C300.456 279.134 312.355 273.629 315.428 258.809C319.811 237.672 307.949 227.052 280.613 227.323L281.045 213.793C282.725 213.57 284.297 212.937 285.707 211.864C289.698 208.83 292.025 202.541 292.484 193.017C294.045 160.662 283.966 140.291 262.177 132.238L261.436 131.971L261.366 131.788C260.983 130.771 260.726 129.947 260.595 129.327L260.567 129.188C260.43 128.461 260.43 127.245 260.583 125.582C260.602 125.375 260.568 125.175 260.491 124.994C265.859 120.925 271.097 113.615 273.654 106.055L273.719 106.075C273.745 106.084 273.773 106.093 273.802 106.103L274.979 106.495C275.752 106.739 276.399 106.895 277.061 106.977C280.691 107.424 282.9 105.207 282.9 100.062C282.9 98.1174 281.901 96.7721 280.033 96.4654C278.812 96.2649 277.278 96.5301 275.373 97.2255C276.282 86.0429 273.486 78.0442 267.787 73.0453C265.639 71.1621 263.127 69.7823 260.518 68.8911C262.943 68.2833 265.373 67.2547 267.262 65.8473C271.595 62.6181 272.962 57.7614 270.476 51.4538L278.928 49.6868L278.995 49.6648C279.279 49.5549 279.35 48.8952 279.35 48.4025C279.35 47.9097 278.919 47.3452 278.593 47.4318L269.946 50.2223C267.165 44.4367 260.156 41.5838 252.905 42.7957ZM239.716 348.54L240.131 348.54C242.122 348.544 244.067 348.551 245.966 348.563C245.82 350.125 245.785 352.027 245.93 353.42H240.154C240.098 352.306 239.949 350.245 239.716 348.54ZM238.023 348.539C237.891 349.524 237.784 350.636 237.687 351.635C237.612 352.421 237.543 353.136 237.474 353.666C237.426 353.701 237.381 353.74 237.339 353.781C234.11 356.995 230.77 359.087 227.318 360.079L226.756 360.237C223.804 361.045 218.276 362.32 218.385 362.291C215.977 362.934 214.81 363.676 214.4 365.224C213.725 367.772 216.478 368.891 223.617 368.935L224.161 368.936C225.333 368.934 226.367 368.823 228.646 368.485L230.418 368.22C232.206 367.96 233.263 367.848 234.232 367.839L234.651 367.842C235.16 367.854 235.685 367.904 236.833 368.041L238.236 368.212C239.048 368.309 239.622 368.369 240.228 368.416C242.738 368.61 244.655 368.447 246.26 367.726C250.416 365.858 250.921 361.211 248.202 354.178C248.198 354.169 248.195 354.161 248.192 354.153C248.206 354.075 248.213 353.994 248.213 353.912V348.58C282.907 348.866 302.236 350.613 318.123 352.62L319.344 352.778C339.131 355.403 351.238 360.146 358.492 368.215C361.421 371.472 356.138 375.571 341.774 378.731C324.419 382.548 297.124 384.158 262.039 382.902L260.973 382.863C258.462 382.769 254.237 382.896 247.236 383.243L240.798 383.581C238.349 383.713 235.529 383.865 232.863 384.009C228.879 384.224 225.238 384.421 223.689 384.502L219.981 384.692C205.972 385.397 194.241 385.845 182.877 386.049L181.397 386.074C155.604 386.49 135.339 385.506 121.301 382.714C105.003 379.472 97.2509 374.158 100.773 366.334C104.834 357.31 115.366 351.237 131.582 349.022L132.075 348.956C136.922 348.316 142.394 348.416 148.803 348.533C151.993 348.592 155.414 348.654 159.107 348.632L162.271 348.621C167.407 348.614 201.641 348.148 201.641 348.148C213.626 348.397 222.157 348.515 231.267 348.533L238.023 348.539ZM258.426 126.393C256.388 127.606 254.379 128.294 252.54 128.294C251.096 128.294 249.546 127.799 247.957 126.903C248.013 127.418 247.998 127.894 247.911 128.334C247.723 129.272 247.131 130.935 246.148 132.235C246.121 132.271 246.092 132.306 246.061 132.339C247.378 133.038 249.414 133.764 252.225 133.395C255.321 132.988 257.033 131.957 258.072 131.156C257.911 129.616 258.118 127.791 258.426 126.393ZM258.411 132.697C257.125 134.272 254.959 135.981 252.225 135.981C248.106 135.981 245.4 135.023 244.521 132.991C221.739 139.922 211.7 159.203 216.85 192.412L217.004 193.383L217.088 193.715C220.248 206.011 227.703 211.413 235.044 210.57L235.269 210.543C241.841 209.677 248.247 203.749 249.962 196.994L250.216 195.977C251.496 190.762 252.272 186.153 252.272 182.365L252.268 180.792C252.226 172.54 251.848 166.431 251.375 163.737L251.341 163.554L251.289 163.687C251.088 164.194 250.874 164.816 250.649 165.549L250.581 165.772C249.546 169.213 248.331 174.806 246.95 182.577C245.935 188.288 229.632 195.457 229.388 194.781C229.312 194.57 230.648 193.708 232.546 192.482L232.548 192.481L232.556 192.476C233.296 191.999 234.12 191.467 234.98 190.896C234.95 190.843 234.919 190.787 234.887 190.728C232.485 186.213 231.006 182.252 230.459 178.828C229.918 175.444 231.18 161.824 231.981 161.827L232.082 161.831C232.486 161.857 232.397 163.622 232.266 166.239C232.122 169.09 231.927 172.953 232.265 176.679C232.631 180.725 234.546 184.8 235.875 187.631C236.243 188.412 236.565 189.099 236.798 189.664C240.312 187.221 243.834 184.363 244.227 182.152L244.541 180.411C245.783 173.593 246.891 168.563 247.864 165.274L247.925 165.07C248.458 163.298 248.956 162.032 249.447 161.227C250.219 159.961 251.388 159.303 252.617 160.218C253.982 161.236 254.665 165.612 254.916 173.59C255.125 170.016 255.472 167.124 255.942 164.957C256.335 163.147 256.814 161.837 257.411 161.008C258.259 159.832 259.585 159.431 260.791 160.221L260.872 160.276C263.461 162.134 265.207 171.145 265.309 182.863L265.314 183.843L265.339 183.98C266.921 189.581 270.199 192.846 273.173 194.802C279.242 185.483 275.709 168.221 274.211 160.898C273.779 158.788 273.516 157.503 273.701 157.472C274.534 157.331 275.332 157.849 275.483 158.63C277.401 168.566 278.388 175.912 278.441 180.704C278.495 185.553 277.629 190.663 275.847 196.032C275.822 196.11 275.789 196.184 275.751 196.254C276.659 196.691 277.455 197.007 278.056 197.245C278.832 197.552 279.282 197.731 279.224 197.873C278.952 198.54 267.952 198.54 262.572 184.163C262.553 184.113 262.554 184.041 262.554 183.976L262.554 183.954C262.554 177.957 262.116 172.609 261.346 168.53C260.995 166.672 260.585 165.137 260.148 164.01L260.089 163.862C259.894 163.38 259.702 163.001 259.537 162.739L259.531 162.728L259.497 162.791C259.208 163.349 258.912 164.254 258.647 165.473L258.604 165.676C258.47 166.319 258.303 167.032 258.12 167.812C257.331 171.18 256.245 175.811 256.22 181.582L256.219 182.444C256.219 192.512 263.772 204.702 272.359 209.479C281.281 214.442 288.924 209.563 289.727 192.9C291.27 160.903 281.841 139.464 259.89 134.192C259.173 134.02 258.701 133.464 258.411 132.697ZM254.886 185.528C254.573 189.101 253.777 193.144 252.647 197.592C250.679 205.345 243.397 212.083 235.653 213.104C234.315 213.28 233.011 213.29 231.748 213.136C231.826 214.191 231.915 215.712 232.013 217.63C232.289 217.594 232.579 217.628 232.852 217.743C234.873 218.594 246.057 219.771 255.773 219.953L256.495 219.965C268.053 220.127 276.33 218.924 277.884 216.714L277.978 213.763C276.107 213.499 274.153 212.802 272.176 211.702C263.628 206.947 256.186 195.769 254.886 185.528ZM225.247 101.185C225.007 97.8361 227.902 98.0561 230.038 98.4377C230.494 100.559 231.127 102.701 231.901 104.812L231.792 104.809C229.419 104.747 225.494 104.645 225.247 101.185ZM275.203 98.9802C275.16 99.367 275.112 99.7574 275.06 100.151C274.872 101.576 274.563 103.021 274.151 104.463C276.916 104.77 281.546 104.939 280.681 99.1849C280.344 96.9438 277.262 98.1593 275.203 98.9802ZM252.127 67.6908C253.307 67.6251 254.53 67.6642 255.767 67.8099C258.9 67.7739 263.587 66.4349 265.735 64.0482C274.16 54.6846 262.478 44.0766 253.405 45.4478C246.667 46.466 240.31 50.899 239.298 57.9913C238.812 61.3981 241.186 66.8235 252.127 67.6908ZM234.108 271.162C235.389 306.379 236.768 344.293 237.391 345.308C237.496 345.485 239.095 345.499 240.364 345.511L240.365 345.511H240.371C240.704 345.514 241.014 345.516 241.267 345.522L241.95 345.532L242.725 345.532C244.602 345.524 246.97 345.441 249.824 345.285L251.013 345.217L255.702 240.514C255.573 238.132 253.228 235.41 251.652 233.58C250.713 232.491 250.047 231.717 250.282 231.52C250.905 230.998 255.78 236.119 256.679 237.93C256.695 237.991 256.714 238.074 256.736 238.174C257.289 236.815 258.068 235.389 259.082 233.908C259.448 233.373 264.086 227.345 260.777 233.56C253.691 246.869 261.717 252.279 275.727 252.326L275.779 252.327L275.785 252.327C275.901 252.328 275.987 252.328 276.179 252.305C281.634 251.656 287.553 251.956 292.216 252.526C296.8 253.086 304.723 257.268 295.755 259.629C293.612 260.193 290.169 259.852 286.193 259.043L285.116 258.875L278.801 270.843L279.892 271.063C299.028 276.764 310.126 271.444 312.934 258.769L313.02 258.371C317.026 239.053 308.427 227.098 280.58 228.373L280.543 229.508C280.518 230.301 279.811 230.924 278.964 230.9C278.118 230.876 277.452 230.214 277.478 229.421L277.506 228.56C267.755 229.23 274.141 228.083 277.537 227.572L277.768 220.352C273.752 222.266 266.354 222.98 256.519 222.839L255.712 222.826C246.183 222.647 235.521 221.576 232.155 220.561C232.665 231.491 233.37 250.878 234.108 271.159L234.108 271.162ZM282.385 260.202L280.109 265.38C278.532 265.155 277.444 264.894 276.629 264.697C276.358 264.632 276.118 264.575 275.899 264.528C275.602 262.47 275.61 260.977 275.887 260.097C276.128 259.331 276.476 258.899 276.93 258.705C277.908 259.004 279.059 259.33 280.383 259.683L281.38 259.944L282.385 260.202ZM273.825 264.672C273.945 264.598 274.072 264.542 274.203 264.503C273.873 262.847 273.87 260.327 274.147 259.447C274.335 258.848 274.495 258.377 274.71 257.996C274.395 257.895 273.915 257.665 273.325 257.382C270.607 256.078 265.542 253.649 263.311 257.461C259.547 263.893 256.24 284.101 257.202 284.107C258.571 284.115 262.051 279.554 264.342 275.504L264.443 275.323L265.034 274.246C266.831 270.979 269.704 267.205 273.825 264.672ZM284.569 257.603C284.079 257.522 283.593 257.727 283.329 258.107C283.224 258.048 283.108 258.002 282.983 257.973L274.49 256.008L274.303 255.908C267.846 252.488 263.67 252.778 260.756 256.588C259.723 257.939 259.205 259.637 258.956 261.89L258.927 262.175L258.891 262.564C258.858 262.954 258.831 263.358 258.805 263.856L258.701 265.934L258.682 266.249C258.65 266.738 258.617 267.057 258.571 267.357L258.542 267.535L258.447 268.018L258.39 268.267C258.357 268.401 258.317 268.555 258.265 268.746L258.114 269.284L257.193 272.399C257.029 273.11 256.874 273.779 256.728 274.407L257.715 248.463C260.818 252.071 267.41 253.972 276.829 253.423L277.605 253.382C277.97 253.365 278.338 253.346 278.709 253.328L278.72 253.327L278.788 253.324L278.802 253.323C282.904 253.116 287.355 252.892 291.388 253.731C301.445 255.824 297.331 257.748 296.446 258.162L296.393 258.187L296.366 258.2L296.25 258.251C294.834 258.841 291.51 258.722 285.23 257.711L284.569 257.603ZM218.723 364.019L219.058 363.927C218.896 363.973 231.025 362.363 237.517 356.036C238.742 354.842 246.178 355.719 246.178 355.719L246.185 355.736C248.984 360.079 249.388 364.594 245.877 365.925C244.637 366.395 242.543 366.863 240.43 366.7L240.123 366.675L239.689 366.634C239.392 366.604 239.071 366.569 238.696 366.524L236.607 366.272C235.507 366.146 235.022 366.115 234.358 366.115C233.198 366.115 227.621 366.883 227.621 366.883C225.919 367.127 225.053 367.211 224.157 367.212C220.573 367.217 218.315 366.391 217.204 365.968L217.099 365.925C216.999 365.883 216.918 365.842 216.855 365.803L216.787 365.757L216.781 365.777C216.91 365.291 217.344 364.412 218.723 364.019ZM272.984 100.151C273.335 97.4916 273.45 95.0054 273.358 92.6943C269.108 94.2753 264.854 93.985 261.238 91.9903C258.268 90.3513 255.592 87.7469 253.201 84.1904L253.113 84.0588L253.034 84.202C251.102 87.6379 248.61 90.382 245.559 92.4205L245.252 92.622C241.423 95.0913 236.931 96.1934 231.82 95.9316L231.84 96.0167C234.755 108.037 244.885 126.557 252.707 127.001C255.7 127.171 260.042 122.643 264.068 117.734C268.415 112.433 272.186 106.208 272.984 100.151ZM265.9 74.9333C269.728 78.2904 272.431 83.4191 273.179 90.2754C273.134 90.2887 273.089 90.3047 273.045 90.3233C269.288 91.9017 265.605 92.3064 262.483 90.5842C259.392 88.8786 256.582 85.3246 254.074 81.0491C253.583 80.2108 252.277 80.2693 251.873 81.1478C251.793 81.3223 251.705 81.5189 251.609 81.7343C250.5 84.2179 248.272 89.2103 243.439 91.8459C239.92 93.7644 234.728 94.2502 232.164 94.4901L232.161 94.4903L232.157 94.4907C231.929 94.5121 231.721 94.5316 231.537 94.5499C231.442 93.9905 231.37 93.4346 231.32 92.8829C234.249 92.3859 240.406 90.4862 242.881 89.0296C246.02 87.1819 246.982 85.2961 248.58 82.161C248.873 81.5864 249.187 80.9697 249.54 80.3038C249.845 79.7287 250.568 75.8968 248.854 78.8109C248.75 78.9879 248.64 79.1811 248.521 79.3886L248.521 79.3898L248.52 79.3906L248.52 79.3911C246.737 82.5136 243.115 88.857 231.249 91.7505C231.018 85.3129 233.796 79.5443 237.857 75.8137C241.65 72.3297 247.386 70.0261 251.745 69.6299C256.33 69.2131 261.874 71.4017 265.9 74.9333Z" fill="#00160A"/>
<path fill-rule="evenodd" clip-rule="evenodd" d="M141.754 275.743C141.019 268.411 137.377 261.152 131.606 256.169C127.403 252.54 121.381 249.501 115.76 252.1C107.114 256.935 104.793 266.858 105.664 275.743C106.745 286.756 112.235 293.546 122.783 297.602C128.726 299.887 132.676 302.901 135.902 308.153C138.483 312.353 139.988 317.613 143.23 321.42C148.078 327.112 154.145 329.642 161.623 328.696C163.105 328.696 167.88 332.862 169.372 335.385C173.269 341.974 176.613 348.931 178.148 356.37C178.596 358.541 178.279 366.663 179.861 368.231C182.753 371.098 181.906 365.577 181.733 363.91C180.296 350.111 175.009 338.354 167.332 326.753C169.69 323.866 170.031 316.521 169.29 314.204C167.332 307.02 143.232 290.505 141.754 275.743Z" fill="white"/>
<path fill-rule="evenodd" clip-rule="evenodd" d="M114.876 250.435L114.833 250.457C106.802 254.949 103.864 261.225 104.441 275.796C105.047 291.105 110.973 293.819 121.613 298.008L121.937 298.134C127.91 300.43 131.677 303.423 134.758 308.44L135.005 308.849C135.543 309.759 136.024 310.687 136.703 312.105L137.917 314.687C139.557 318.152 140.602 319.975 142.138 321.779C147.181 327.699 153.488 330.227 161.092 329.266L161.165 329.253L161.235 329.231C162.413 328.797 166.42 332.615 168.223 335.663C172.602 343.068 175.429 349.526 176.837 356.026L176.933 356.479C177.024 356.919 177.083 357.596 177.153 358.882L177.249 360.787C177.272 361.231 177.293 361.617 177.316 361.982L177.33 362.199C177.559 365.743 177.934 367.766 178.802 368.626C179.962 369.775 181.032 369.992 181.618 368.994C181.952 368.426 182.03 367.509 181.959 366.219L181.93 365.788C181.913 365.568 181.892 365.339 181.867 365.094L181.669 363.284C180.263 350.736 175.688 339.35 167.61 327.011L167.453 326.772L167.553 326.623C169.486 323.632 170.191 316.937 169.264 314.039C167.68 309.088 164.547 305.082 158.846 299.799L157.854 298.882C148.214 289.949 144.981 285.341 142.331 275.508L141.42 272.107L141.397 272.023C139.221 264.163 136.937 259.485 132.618 255.757C127.437 251.282 120.153 247.995 114.876 250.435ZM131.787 256.602C135.749 260.022 138.55 264.344 140.607 271.543L141.049 273.136L141.664 275.448C142.331 281.645 144.394 288.946 156.992 299.7L157.662 300.319C163.433 305.626 166.55 309.557 168.089 314.369C168.964 317.105 168.163 324.04 166.232 326.403C166.077 326.593 166.063 326.852 166.198 327.055C174.413 339.47 179.04 350.848 180.448 363.395L180.62 364.958L180.669 365.432C180.69 365.658 180.707 365.871 180.721 366.076L180.734 366.279C180.793 367.351 180.727 368.127 180.544 368.439L180.535 368.46L180.557 368.466C180.394 368.433 180.094 368.233 179.694 367.836C179.138 367.286 178.779 365.415 178.571 362.379L178.527 361.696L178.367 358.628C178.302 357.464 178.244 356.811 178.151 356.332L178.137 356.261C176.737 349.472 173.834 342.78 169.296 335.106L169.196 334.94C167.074 331.447 162.952 327.536 160.883 328.13L160.87 328.134L160.928 328.127C153.762 329.033 147.877 326.673 143.097 321.062C141.602 319.306 140.577 317.494 138.896 313.917L138.029 312.069C137.114 310.138 136.548 309.051 135.821 307.867C132.659 302.719 128.766 299.577 122.74 297.202L122.403 297.071C111.972 293.059 106.713 286.395 105.662 275.691L105.632 275.371C104.747 265.485 107.914 256.96 115.225 252.728L115.44 252.605L115.419 252.615C120.157 250.425 126.939 252.415 131.787 256.602Z" fill="#00160A"/>
<path fill-rule="evenodd" clip-rule="evenodd" d="M175.727 328.872C179.275 329.382 182.366 327.436 183.557 324.192C184.585 321.388 184.685 318.127 185.854 315.476C186.658 313.65 187.938 312.099 189.503 310.788C193.631 307.33 197.941 306.465 199.172 300.726C200.137 296.227 198.939 287.057 192.237 287.972C187.575 288.611 183.807 294.448 181.636 298.129C178.948 302.684 176.441 307.566 175.029 312.569C172.703 320.812 172.389 329.961 172.36 338.403C172.357 339.42 172.13 351.846 173.681 351.642C175.217 351.44 174.244 338.542 174.375 335.871" fill="white"/>
<path fill-rule="evenodd" clip-rule="evenodd" d="M125.253 259.922C124.071 260.489 124.303 262.316 125.716 265.575C127.132 268.84 129.22 271.299 131.353 272.417C133.535 273.561 135.528 273.09 136.079 271.084C136.575 269.274 133.177 264.746 129.569 261.751C127.691 260.193 126.225 259.455 125.253 259.922ZM128.755 262.612C131.651 265.893 135.221 270.168 134.891 271.372C134.567 272.549 133.502 272.801 131.952 271.989C130.084 271.01 127.835 268.23 126.518 265.19L126.324 264.733C125.118 262.556 125.122 260.591 125.812 260.37C126.47 260.159 127.894 261.637 128.755 262.612ZM186.027 295.616C185.545 294.382 186.993 292.863 189.663 291.768C192.53 290.593 194.396 290.508 194.386 291.971C194.38 292.96 192.957 294.34 190.787 295.582C188.586 296.841 186.531 296.909 186.027 295.616ZM193.142 292.049C193.093 292.043 193.032 292.039 192.957 292.039L192.876 292.041C192.796 292.045 192.698 292.042 192.58 292.039C191.845 292.02 190.332 291.98 187.503 293.294C186.896 293.576 186.508 295.074 186.565 295.221C186.704 295.576 188.512 296.111 190.147 295.176C190.828 294.786 191.426 294.098 191.913 293.539C192.117 293.303 192.302 293.09 192.466 292.932C192.833 292.576 193.056 292.268 193.131 292.081L193.142 292.049ZM188.513 303.223L188.216 303.673C186.92 305.655 186.135 307.06 185.82 307.947C185.399 309.133 185.85 309.971 187.022 309.612C188.09 309.285 190.149 307.664 192.709 305.297C194.78 303.382 195.817 300.472 195.022 299.078C193.942 297.183 191.422 298.84 188.513 303.223ZM193.94 299.045C194.43 299.905 193.574 302.883 191.847 304.479L191.268 305.01C190.817 305.417 190.335 305.874 189.857 306.328L189.857 306.328L189.856 306.328C188.387 307.722 186.956 309.079 186.612 308.842C186.211 308.566 187.515 305.979 188.941 303.83C190.317 301.758 192.119 299.845 193.031 299.246C193.625 298.856 193.837 298.864 193.94 299.045ZM176.89 320.95C176.542 323.117 176.853 324.735 178.021 324.959C179.222 325.189 180.498 323.691 181.92 320.635C183.278 317.717 182.922 314.953 181.146 314.534C179.314 314.102 177.65 316.495 176.927 320.729L176.89 320.95ZM180.847 315.648C181.64 315.835 182.051 317.785 181.025 320.287C180.219 322.252 178.021 326.92 177.44 323.266C177.352 322.71 177.351 321.983 177.49 321.121L177.564 320.686C178.196 317.204 180.035 315.457 180.847 315.648ZM113.346 284.806C110.342 281.736 108.563 277.911 110.041 276.237C111.802 274.243 119.931 281.142 119.825 284.589C119.763 286.6 118.829 287.632 117.281 287.368C116.133 287.172 114.734 286.225 113.346 284.806ZM110.981 276.401L110.939 276.454C110.134 277.547 111.075 281.411 113.636 284.03C114.859 285.28 116.681 286.672 117.5 286.812C118.184 286.929 118.556 286.518 118.598 285.13C118.638 283.855 117.123 281.188 114.906 279.307C114.661 279.098 114.368 278.818 114.05 278.514C113.086 277.592 111.894 276.451 111.113 276.441C110.989 276.44 110.962 276.428 110.981 276.401ZM110.981 276.401L110.986 276.395C110.984 276.397 110.983 276.399 110.981 276.401ZM146.483 318.32C147.168 321.11 148.521 322.927 150.354 323.922C151.596 324.597 152.75 324.796 154.072 324.796C156.908 324.796 158.224 323.612 157.73 321.689C157.36 320.247 155.936 318.456 154.038 316.894C152.147 315.336 150.118 314.28 148.643 314.194C146.628 314.076 145.815 315.601 146.483 318.32ZM148.567 315.341C149.708 315.408 151.523 316.352 153.229 317.757C154.953 319.177 156.238 320.793 156.537 321.958C156.823 323.073 156.186 324.221 154.072 324.221C152.946 324.221 151.988 324.056 150.969 323.503C149.441 322.673 147.677 320.552 147.065 318.062C146.557 315.992 147.548 315.282 148.567 315.341ZM151.602 306.516C149.064 304.539 147.849 302.463 148.58 301.319C149.413 300.018 151.594 300.864 153.804 303.139C155.187 304.562 157.123 307.025 157.694 308.241C157.927 308.737 158.006 309.106 157.828 309.443C157.559 309.953 157.023 309.967 156.396 309.726C155.596 309.419 154.243 308.538 152.244 307.011L151.602 306.516ZM150.346 302.004C150.077 301.9 149.863 301.862 149.724 301.878C149.658 301.885 149.642 301.894 149.632 301.91C149.617 301.935 149.589 301.967 149.555 302.006L149.555 302.006C149.383 302.203 149.052 302.583 149.339 303.073C149.79 303.844 151.229 305.306 152.386 306.207C153.932 307.411 155.553 308.256 156.517 308.758L156.517 308.758C156.698 308.852 156.855 308.934 156.985 309.005L157.067 309.048L156.976 308.888C156.309 307.747 154.18 305.262 153.034 304.055L152.897 303.913C151.934 302.921 151.045 302.275 150.346 302.004ZM124.66 290.975C123.929 292.119 125.144 294.195 127.683 296.172L128.324 296.667C130.323 298.194 131.676 299.075 132.476 299.382C133.103 299.623 133.639 299.609 133.908 299.099C134.086 298.762 134.007 298.393 133.775 297.897C133.203 296.681 131.267 294.218 129.885 292.795C127.675 290.52 125.493 289.674 124.66 290.975ZM125.804 291.534C125.943 291.518 126.157 291.556 126.426 291.66C127.125 291.931 128.014 292.577 128.977 293.569L129.114 293.711C130.26 294.918 131.776 297.403 132.443 298.544L132.533 298.704L132.452 298.661C131.628 298.215 130.302 297.292 128.467 295.863C127.309 294.962 125.87 293.5 125.419 292.729C125.133 292.239 125.463 291.859 125.635 291.662L125.635 291.662C125.669 291.623 125.697 291.591 125.712 291.566C125.723 291.55 125.739 291.541 125.804 291.534ZM139.949 292.724C137.41 290.747 136.195 288.671 136.927 287.527C137.76 286.226 139.941 287.072 142.151 289.347C143.533 290.77 145.47 293.233 146.041 294.449C146.274 294.945 146.353 295.314 146.175 295.651C145.906 296.161 145.37 296.175 144.743 295.934C143.943 295.627 142.59 294.746 140.59 293.219L139.949 292.724ZM138.693 288.212C138.424 288.108 138.21 288.07 138.07 288.086C138.005 288.093 137.989 288.102 137.979 288.118C137.976 288.123 137.973 288.128 137.969 288.133C137.864 288.296 137.553 288.778 137.886 289.347C138.337 290.119 139.656 292.071 140.12 292.415C141.496 293.437 143.224 294.228 144.368 294.753C144.778 294.941 145.114 295.095 145.331 295.213L145.413 295.256L145.323 295.096C144.656 293.955 142.527 291.47 141.38 290.263L141.244 290.121C140.28 289.129 139.392 288.483 138.693 288.212Z" fill="#FFB61D"/>
<path fill-rule="evenodd" clip-rule="evenodd" d="M192.149 287.403C195.534 286.941 198.528 288.776 199.772 292.13C200.75 294.766 200.328 298.252 199.773 300.84C199.062 304.159 197.579 305.933 194.312 308.13L192.35 309.421C191.672 309.874 191.116 310.267 190.584 310.677C190.352 310.855 190.129 311.035 189.912 311.217C188.332 312.54 187.154 314.031 186.421 315.695L186.32 315.929C185.932 316.861 185.686 317.786 185.331 319.511L185.027 321.02C184.719 322.521 184.486 323.425 184.137 324.379C182.795 328.037 179.96 329.974 176.247 329.44C175.912 329.392 174.812 329.47 177.277 329.002C179.742 328.534 181.815 327.172 182.977 324.005C183.304 323.114 183.526 322.249 183.825 320.793L184.13 319.276C184.528 317.341 184.799 316.363 185.287 315.256C186.094 313.425 187.383 311.794 189.094 310.36C189.324 310.167 189.56 309.978 189.804 309.79C190.291 309.414 190.794 309.054 191.381 308.657L191.978 308.26C192.472 307.935 193.226 307.443 193.379 307.342L193.803 307.057C196.692 305.083 198.558 303.531 199.184 300.613C199.697 298.221 198.903 294.943 198 292.508C196.93 289.623 195.045 287.595 192.326 287.966C188.323 288.514 178.385 302.145 175.637 310.489C173.376 317.356 172.802 327.897 172.952 337.361L172.976 338.709L172.972 340.568C172.974 342.075 172.99 343.334 173.032 344.643L173.043 344.972C173.111 346.866 173.227 348.421 173.402 349.541C173.46 349.91 173.523 350.226 173.59 350.483L173.625 350.608L173.644 350.53C173.72 350.185 173.782 349.734 173.83 349.185L173.845 348.999L173.872 348.603C173.947 347.379 173.963 345.813 173.931 343.857L173.902 342.491C173.89 341.989 173.875 341.449 173.856 340.821L173.754 337.21C173.742 336.649 173.743 336.355 173.752 336.081L173.798 335.035C173.832 334.185 173.852 333.302 173.875 331.899L173.91 329.867C174.003 325.22 174.184 322.906 174.775 320.061C174.864 319.631 174.961 319.208 175.067 318.79C176.615 312.684 179.946 308.288 183.169 302.902C184.137 301.285 189.217 298.808 189.263 299.123C189.31 299.437 184.914 301.296 183.579 303.376C180.741 307.799 177.774 313.086 176.261 319.055C176.159 319.458 176.065 319.866 175.979 320.28L175.867 320.839C175.381 323.364 175.221 325.625 175.136 329.9L175.072 333.461C175.056 334.185 175.038 334.762 175.013 335.349L174.976 336.202C174.968 336.517 174.972 336.905 174.993 337.737L175.123 342.247C175.135 342.689 175.144 343.099 175.151 343.508L175.171 344.826C175.229 349.939 174.975 352.053 173.766 352.211C172.819 352.336 172.464 351.473 172.188 349.707C172.016 348.605 171.9 347.129 171.83 345.348L171.817 345.01C171.766 343.566 171.747 342.215 171.746 340.572L171.747 338.417C171.488 328.582 172.69 317.402 175.078 310.151C177.957 301.408 187.505 288.039 192.149 287.403Z" fill="#00160A"/>
<ellipse cx="173.573" cy="357.443" rx="23.92" ry="16.6653" fill="white"/>
<ellipse cx="164.07" cy="357.443" rx="14.4163" ry="16.6653" fill="#E7EAEE"/>
<path fill-rule="evenodd" clip-rule="evenodd" d="M197.493 340.059H149.653C149.23 340.059 148.887 340.381 148.887 340.777C148.887 353.054 150.123 360.698 153.409 366.005C157.113 371.989 163.496 374.826 173.573 374.826C183.65 374.826 190.033 371.989 193.738 366.005C197.024 360.698 198.26 353.054 198.26 340.777C198.26 340.381 197.917 340.059 197.493 340.059ZM151.648 341.496H196.112L196.111 341.661C196.053 353.183 196.059 360.383 193.025 365.284C189.621 370.782 183.143 373.964 173.573 373.964C164.004 373.964 158.139 370.208 154.735 364.709L154.621 364.522C151.709 359.69 151.739 353.228 151.652 342.114L151.648 341.496Z" fill="#00160A"/>
</svg>
